<?xml version="1.0" encoding="UTF-8" standalone="no"?>
<!DOCTYPE svg PUBLIC "-//W3C//DTD SVG 1.1//EN" "http://www.w3.org/Graphics/SVG/1.1/DTD/svg11.dtd">
<svg width="100%" height="100%" viewBox="0 0 40 80" version="1.1" xmlns="http://www.w3.org/2000/svg" xmlns:xlink="http://www.w3.org/1999/xlink" xml:space="preserve" xmlns:serif="http://www.serif.com/" style="fill-rule:evenodd;clip-rule:evenodd;stroke-linejoin:round;stroke-miterlimit:1.41421;">
    <g transform="matrix(1,0,0,1,0,-50)">
        <g id="Artboard5" transform="matrix(0.5,0,0,1.02564,0,-1.28205)">
            <rect x="0" y="50" width="80" height="78" style="fill:none;"/>
            <g transform="matrix(1.99313,0,0,1.1696,-71.8127,6.92381)">
                <path d="M57.771,91.501L58.04,91.504L58.307,91.508L58.573,91.514L58.837,91.522L59.098,91.532L59.358,91.543L59.615,91.556L59.87,91.57L60.123,91.587L60.373,91.604L60.621,91.624L60.866,91.645L61.109,91.667L61.348,91.691L61.585,91.716L61.819,91.743L62.05,91.771L62.278,91.801L62.503,91.832L62.725,91.865L62.943,91.898L63.158,91.933L63.369,91.97L63.577,92.008L63.781,92.047L63.981,92.087L64.177,92.128L64.37,92.171L64.558,92.215L64.743,92.26L64.923,92.306L65.099,92.353L65.271,92.401L65.438,92.451L65.601,92.501L65.759,92.553L65.913,92.605L66.062,92.659L66.134,92.686L66.206,92.713L66.276,92.74L66.345,92.768L66.413,92.796L66.479,92.824L66.544,92.853L66.608,92.882L66.671,92.911L66.732,92.94L66.792,92.969L66.851,92.999L66.908,93.028L66.964,93.058L67.019,93.088L67.072,93.119L67.124,93.149L67.174,93.18L67.223,93.211L67.271,93.242L67.318,93.273L67.362,93.305L67.406,93.337L67.448,93.368L67.488,93.4L67.528,93.433L67.565,93.465L67.601,93.498L67.636,93.53L67.669,93.563L67.701,93.596L67.731,93.629L67.759,93.663L67.787,93.696L67.812,93.73L67.836,93.763L67.858,93.797L67.879,93.831L67.898,93.866L67.916,93.9L67.931,93.934L67.946,93.969L67.958,94.004L67.969,94.039L67.979,94.074L67.986,94.109L67.992,94.144L67.997,94.179L67.999,94.214L68,94.25L67.999,94.286L67.997,94.321L67.992,94.356L67.986,94.391L67.979,94.426L67.969,94.461L67.958,94.496L67.946,94.531L67.931,94.566L67.916,94.6L67.898,94.634L67.879,94.669L67.858,94.703L67.836,94.737L67.812,94.77L67.787,94.804L67.759,94.837L67.731,94.871L67.701,94.904L67.669,94.937L67.636,94.97L67.601,95.002L67.565,95.035L67.528,95.067L67.488,95.1L67.448,95.132L67.406,95.163L67.362,95.195L67.318,95.227L67.271,95.258L67.223,95.289L67.174,95.32L67.124,95.351L67.072,95.381L67.019,95.412L66.964,95.442L66.908,95.472L66.851,95.501L66.792,95.531L66.732,95.56L66.671,95.589L66.608,95.618L66.544,95.647L66.479,95.676L66.413,95.704L66.345,95.732L66.276,95.76L66.206,95.787L66.134,95.814L66.062,95.841L65.913,95.895L65.759,95.947L65.601,95.999L65.438,96.049L65.271,96.099L65.099,96.147L64.923,96.194L64.743,96.24L64.558,96.285L64.37,96.329L64.177,96.372L63.981,96.413L63.781,96.453L63.577,96.492L63.369,96.53L63.158,96.567L62.943,96.602L62.725,96.635L62.503,96.668L62.278,96.699L62.05,96.729L61.819,96.757L61.585,96.784L61.348,96.809L61.109,96.833L60.866,96.855L60.621,96.876L60.373,96.896L60.123,96.913L59.87,96.93L59.615,96.944L59.358,96.957L59.098,96.968L58.837,96.978L58.573,96.986L58.307,96.992L58.04,96.996L57.771,96.999L57.5,97L57.229,96.999L56.96,96.996L56.693,96.992L56.427,96.986L56.163,96.978L55.902,96.968L55.642,96.957L55.385,96.944L55.13,96.93L54.877,96.913L54.627,96.896L54.379,96.876L54.134,96.855L53.891,96.833L53.652,96.809L53.415,96.784L53.181,96.757L52.95,96.729L52.722,96.699L52.497,96.668L52.275,96.635L52.057,96.602L51.842,96.567L51.631,96.53L51.423,96.492L51.219,96.453L51.019,96.413L50.823,96.372L50.63,96.329L50.442,96.285L50.257,96.24L50.077,96.194L49.901,96.147L49.729,96.099L49.562,96.049L49.399,95.999L49.241,95.947L49.087,95.895L48.938,95.841L48.866,95.814L48.794,95.787L48.724,95.76L48.655,95.732L48.587,95.704L48.521,95.676L48.456,95.647L48.392,95.618L48.329,95.589L48.268,95.56L48.208,95.531L48.149,95.501L48.092,95.472L48.036,95.442L47.981,95.412L47.928,95.381L47.876,95.351L47.826,95.32L47.777,95.289L47.729,95.258L47.682,95.227L47.638,95.195L47.594,95.163L47.552,95.132L47.512,95.1L47.472,95.067L47.435,95.035L47.399,95.002L47.364,94.97L47.331,94.937L47.299,94.904L47.269,94.871L47.241,94.837L47.213,94.804L47.188,94.77L47.164,94.737L47.142,94.703L47.121,94.669L47.102,94.634L47.084,94.6L47.069,94.566L47.054,94.531L47.042,94.496L47.031,94.461L47.021,94.426L47.014,94.391L47.008,94.356L47.003,94.321L47.001,94.286L47,94.25L47.001,94.214L47.003,94.179L47.008,94.144L47.014,94.109L47.021,94.074L47.031,94.039L47.042,94.004L47.054,93.969L47.069,93.934L47.084,93.9L47.102,93.866L47.121,93.831L47.142,93.797L47.164,93.763L47.188,93.73L47.213,93.696L47.241,93.663L47.269,93.629L47.299,93.596L47.331,93.563L47.364,93.53L47.399,93.498L47.435,93.465L47.472,93.433L47.512,93.4L47.552,93.368L47.594,93.337L47.638,93.305L47.682,93.273L47.729,93.242L47.777,93.211L47.826,93.18L47.876,93.149L47.928,93.119L47.981,93.088L48.036,93.058L48.092,93.028L48.149,92.999L48.208,92.969L48.268,92.94L48.329,92.911L48.392,92.882L48.456,92.853L48.521,92.824L48.587,92.796L48.655,92.768L48.724,92.74L48.794,92.713L48.866,92.686L48.938,92.659L49.087,92.605L49.241,92.553L49.399,92.501L49.562,92.451L49.729,92.401L49.901,92.353L50.077,92.306L50.257,92.26L50.442,92.215L50.63,92.171L50.823,92.128L51.019,92.087L51.219,92.047L51.423,92.008L51.631,91.97L51.842,91.933L52.057,91.898L52.275,91.865L52.497,91.832L52.722,91.801L52.95,91.771L53.181,91.743L53.415,91.716L53.652,91.691L53.891,91.667L54.134,91.645L54.379,91.624L54.627,91.604L54.877,91.587L55.13,91.57L55.385,91.556L55.642,91.543L55.902,91.532L56.163,91.522L56.427,91.514L56.693,91.508L56.96,91.504L57.229,91.501L57.5,91.5L57.771,91.501ZM57.245,93.168L56.992,93.171L56.741,93.175L56.491,93.181L56.244,93.188L55.999,93.197L55.755,93.208L55.514,93.22L55.276,93.233L55.04,93.248L54.806,93.265L54.575,93.283L54.347,93.302L54.122,93.323L53.899,93.345L53.68,93.369L53.464,93.394L53.251,93.42L53.042,93.447L52.836,93.475L52.633,93.505L52.435,93.536L52.24,93.568L52.049,93.601L51.863,93.634L51.68,93.669L51.502,93.705L51.328,93.742L51.159,93.779L50.995,93.817L50.835,93.856L50.68,93.896L50.531,93.936L50.387,93.977L50.248,94.017L50.115,94.059L49.988,94.1L49.867,94.141L49.747,94.184L49.696,94.203L49.643,94.224L49.591,94.244L49.576,94.25L49.591,94.256L49.643,94.276L49.696,94.297L49.747,94.316L49.867,94.359L49.988,94.4L50.115,94.441L50.248,94.483L50.387,94.523L50.531,94.564L50.68,94.604L50.835,94.644L50.995,94.683L51.159,94.721L51.328,94.758L51.502,94.795L51.68,94.831L51.863,94.866L52.049,94.899L52.24,94.932L52.435,94.964L52.633,94.995L52.836,95.025L53.042,95.053L53.251,95.08L53.464,95.106L53.68,95.131L53.899,95.155L54.122,95.177L54.347,95.198L54.575,95.217L54.806,95.235L55.04,95.252L55.276,95.267L55.514,95.28L55.755,95.292L55.999,95.303L56.244,95.312L56.491,95.319L56.741,95.325L56.992,95.329L57.245,95.332L57.5,95.333L57.755,95.332L58.008,95.329L58.259,95.325L58.509,95.319L58.756,95.312L59.001,95.303L59.245,95.292L59.486,95.28L59.724,95.267L59.96,95.252L60.194,95.235L60.425,95.217L60.653,95.198L60.878,95.177L61.101,95.155L61.32,95.131L61.536,95.106L61.749,95.08L61.958,95.053L62.164,95.025L62.367,94.995L62.565,94.964L62.76,94.932L62.951,94.899L63.137,94.866L63.32,94.831L63.498,94.795L63.672,94.758L63.841,94.721L64.005,94.683L64.165,94.644L64.32,94.604L64.469,94.564L64.613,94.523L64.752,94.483L64.885,94.441L65.012,94.4L65.133,94.359L65.253,94.316L65.304,94.297L65.357,94.276L65.409,94.256L65.424,94.25L65.409,94.244L65.357,94.224L65.304,94.203L65.253,94.184L65.133,94.141L65.012,94.1L64.885,94.059L64.752,94.017L64.613,93.977L64.469,93.936L64.32,93.896L64.165,93.856L64.005,93.817L63.841,93.779L63.672,93.742L63.498,93.705L63.32,93.669L63.137,93.634L62.951,93.601L62.76,93.568L62.565,93.536L62.367,93.505L62.164,93.475L61.958,93.447L61.749,93.42L61.536,93.394L61.32,93.369L61.101,93.345L60.878,93.323L60.653,93.302L60.425,93.283L60.194,93.265L59.96,93.248L59.724,93.233L59.486,93.22L59.245,93.208L59.001,93.197L58.756,93.188L58.509,93.181L58.259,93.175L58.008,93.171L57.755,93.168L57.5,93.167L57.245,93.168Z" style="fill:rgb(177,91,0);"/>
            </g>
            <g transform="matrix(2.48377,0,0,1.1696,-99.9182,-35.9615)">
                <clipPath id="_clip1">
                    <rect x="43.509" y="94.25" width="26.418" height="11.733"/>
                </clipPath>
                <g clip-path="url(#_clip1)">
                    <path d="M57.771,91.501L58.04,91.504L58.307,91.508L58.573,91.514L58.837,91.522L59.098,91.532L59.358,91.543L59.615,91.556L59.87,91.57L60.123,91.587L60.373,91.604L60.621,91.624L60.866,91.645L61.109,91.667L61.348,91.691L61.585,91.716L61.819,91.743L62.05,91.771L62.278,91.801L62.503,91.832L62.725,91.865L62.943,91.898L63.158,91.933L63.369,91.97L63.577,92.008L63.781,92.047L63.981,92.087L64.177,92.128L64.37,92.171L64.558,92.215L64.743,92.26L64.923,92.306L65.099,92.353L65.271,92.401L65.438,92.451L65.601,92.501L65.759,92.553L65.913,92.605L65.988,92.632L66.062,92.659L66.134,92.686L66.206,92.713L66.276,92.74L66.345,92.768L66.413,92.796L66.479,92.824L66.544,92.853L66.608,92.882L66.671,92.911L66.732,92.94L66.792,92.969L66.851,92.999L66.908,93.028L66.964,93.058L67.019,93.088L67.072,93.119L67.124,93.149L67.174,93.18L67.223,93.211L67.271,93.242L67.318,93.273L67.362,93.305L67.406,93.337L67.448,93.368L67.488,93.4L67.528,93.433L67.565,93.465L67.601,93.498L67.636,93.53L67.669,93.563L67.701,93.596L67.731,93.629L67.759,93.663L67.787,93.696L67.812,93.73L67.836,93.763L67.858,93.797L67.879,93.831L67.898,93.866L67.916,93.9L67.931,93.934L67.946,93.969L67.958,94.004L67.969,94.039L67.979,94.074L67.986,94.109L67.992,94.144L67.997,94.179L67.999,94.214L68,94.25L67.999,94.286L67.997,94.321L67.992,94.356L67.986,94.391L67.979,94.426L67.969,94.461L67.958,94.496L67.946,94.531L67.931,94.566L67.916,94.6L67.898,94.634L67.879,94.669L67.858,94.703L67.836,94.737L67.812,94.77L67.787,94.804L67.759,94.837L67.731,94.871L67.701,94.904L67.669,94.937L67.636,94.97L67.601,95.002L67.565,95.035L67.528,95.067L67.488,95.1L67.448,95.132L67.406,95.163L67.362,95.195L67.318,95.227L67.271,95.258L67.223,95.289L67.174,95.32L67.124,95.351L67.072,95.381L67.019,95.412L66.964,95.442L66.908,95.472L66.851,95.501L66.792,95.531L66.732,95.56L66.671,95.589L66.608,95.618L66.544,95.647L66.479,95.676L66.413,95.704L66.345,95.732L66.276,95.76L66.206,95.787L66.134,95.814L66.062,95.841L65.988,95.868L65.913,95.895L65.759,95.947L65.601,95.999L65.438,96.049L65.271,96.099L65.099,96.147L64.923,96.194L64.743,96.24L64.558,96.285L64.37,96.329L64.177,96.372L63.981,96.413L63.781,96.453L63.577,96.492L63.369,96.53L63.158,96.567L62.943,96.602L62.725,96.635L62.503,96.668L62.278,96.699L62.05,96.729L61.819,96.757L61.585,96.784L61.348,96.809L61.109,96.833L60.866,96.855L60.621,96.876L60.373,96.896L60.123,96.913L59.87,96.93L59.615,96.944L59.358,96.957L59.098,96.968L58.837,96.978L58.573,96.986L58.307,96.992L58.04,96.996L57.771,96.999L57.5,97L57.229,96.999L56.96,96.996L56.693,96.992L56.427,96.986L56.163,96.978L55.902,96.968L55.642,96.957L55.385,96.944L55.13,96.93L54.877,96.913L54.627,96.896L54.379,96.876L54.134,96.855L53.891,96.833L53.652,96.809L53.415,96.784L53.181,96.757L52.95,96.729L52.722,96.699L52.497,96.668L52.275,96.635L52.057,96.602L51.842,96.567L51.631,96.53L51.423,96.492L51.219,96.453L51.019,96.413L50.823,96.372L50.63,96.329L50.442,96.285L50.257,96.24L50.077,96.194L49.901,96.147L49.729,96.099L49.562,96.049L49.399,95.999L49.241,95.947L49.087,95.895L49.012,95.868L48.938,95.841L48.866,95.814L48.794,95.787L48.724,95.76L48.655,95.732L48.587,95.704L48.521,95.676L48.456,95.647L48.392,95.618L48.329,95.589L48.268,95.56L48.208,95.531L48.149,95.501L48.092,95.472L48.036,95.442L47.981,95.412L47.928,95.381L47.876,95.351L47.826,95.32L47.777,95.289L47.729,95.258L47.682,95.227L47.638,95.195L47.594,95.163L47.552,95.132L47.512,95.1L47.472,95.067L47.435,95.035L47.399,95.002L47.364,94.97L47.331,94.937L47.299,94.904L47.269,94.871L47.241,94.837L47.213,94.804L47.188,94.77L47.164,94.737L47.142,94.703L47.121,94.669L47.102,94.634L47.084,94.6L47.069,94.566L47.054,94.531L47.042,94.496L47.031,94.461L47.021,94.426L47.014,94.391L47.008,94.356L47.003,94.321L47.001,94.286L47,94.25L47.001,94.214L47.003,94.179L47.008,94.144L47.014,94.109L47.021,94.074L47.031,94.039L47.042,94.004L47.054,93.969L47.069,93.934L47.084,93.9L47.102,93.866L47.121,93.831L47.142,93.797L47.164,93.763L47.188,93.73L47.213,93.696L47.241,93.663L47.269,93.629L47.299,93.596L47.331,93.563L47.364,93.53L47.399,93.498L47.435,93.465L47.472,93.433L47.512,93.4L47.552,93.368L47.594,93.337L47.638,93.305L47.682,93.273L47.729,93.242L47.777,93.211L47.826,93.18L47.876,93.149L47.928,93.119L47.981,93.088L48.036,93.058L48.092,93.028L48.149,92.999L48.208,92.969L48.268,92.94L48.329,92.911L48.392,92.882L48.456,92.853L48.521,92.824L48.587,92.796L48.655,92.768L48.724,92.74L48.794,92.713L48.866,92.686L48.938,92.659L49.012,92.632L49.087,92.605L49.241,92.553L49.399,92.501L49.562,92.451L49.729,92.401L49.901,92.353L50.077,92.306L50.257,92.26L50.442,92.215L50.63,92.171L50.823,92.128L51.019,92.087L51.219,92.047L51.423,92.008L51.631,91.97L51.842,91.933L52.057,91.898L52.275,91.865L52.497,91.832L52.722,91.801L52.95,91.771L53.181,91.743L53.415,91.716L53.652,91.691L53.891,91.667L54.134,91.645L54.379,91.624L54.627,91.604L54.877,91.587L55.13,91.57L55.385,91.556L55.642,91.543L55.902,91.532L56.163,91.522L56.427,91.514L56.693,91.508L56.96,91.504L57.229,91.501L57.5,91.5L57.771,91.501ZM57.237,92.751L56.976,92.754L56.716,92.758L56.458,92.764L56.202,92.772L55.949,92.781L55.697,92.792L55.448,92.805L55.2,92.819L54.956,92.834L54.714,92.852L54.474,92.87L54.237,92.89L54.003,92.912L53.772,92.935L53.543,92.96L53.318,92.985L53.096,93.013L52.877,93.041L52.661,93.071L52.449,93.102L52.241,93.134L52.036,93.168L51.835,93.202L51.637,93.238L51.444,93.275L51.255,93.313L51.07,93.352L50.889,93.392L50.712,93.433L50.54,93.475L50.373,93.518L50.211,93.562L50.053,93.606L49.9,93.651L49.753,93.697L49.611,93.743L49.472,93.79L49.408,93.813L49.343,93.837L49.28,93.86L49.218,93.884L49.157,93.908L49.098,93.931L49.041,93.955L48.985,93.979L48.931,94.003L48.878,94.026L48.827,94.05L48.778,94.073L48.73,94.097L48.684,94.12L48.64,94.143L48.597,94.165L48.557,94.188L48.518,94.21L48.481,94.232L48.451,94.25L48.481,94.268L48.518,94.29L48.557,94.312L48.597,94.335L48.64,94.357L48.684,94.38L48.73,94.403L48.778,94.427L48.827,94.45L48.878,94.474L48.931,94.497L48.985,94.521L49.041,94.545L49.098,94.569L49.157,94.592L49.218,94.616L49.28,94.64L49.343,94.663L49.408,94.687L49.472,94.71L49.611,94.757L49.753,94.803L49.9,94.849L50.053,94.894L50.211,94.938L50.373,94.982L50.54,95.025L50.712,95.067L50.889,95.108L51.07,95.148L51.255,95.187L51.444,95.225L51.637,95.262L51.835,95.298L52.036,95.332L52.241,95.366L52.449,95.398L52.661,95.429L52.877,95.459L53.096,95.487L53.318,95.515L53.543,95.54L53.772,95.565L54.003,95.588L54.237,95.61L54.474,95.63L54.714,95.648L54.956,95.666L55.2,95.681L55.448,95.695L55.697,95.708L55.949,95.719L56.202,95.728L56.458,95.736L56.716,95.742L56.976,95.746L57.237,95.749L57.5,95.75L57.763,95.749L58.024,95.746L58.284,95.742L58.542,95.736L58.798,95.728L59.051,95.719L59.303,95.708L59.552,95.695L59.8,95.681L60.044,95.666L60.286,95.648L60.526,95.63L60.763,95.61L60.997,95.588L61.228,95.565L61.457,95.54L61.682,95.515L61.904,95.487L62.123,95.459L62.339,95.429L62.551,95.398L62.759,95.366L62.964,95.332L63.165,95.298L63.363,95.262L63.556,95.225L63.745,95.187L63.93,95.148L64.111,95.108L64.288,95.067L64.46,95.025L64.627,94.982L64.789,94.938L64.947,94.894L65.1,94.849L65.247,94.803L65.389,94.757L65.528,94.71L65.592,94.687L65.657,94.663L65.72,94.64L65.782,94.616L65.843,94.592L65.902,94.569L65.959,94.545L66.015,94.521L66.069,94.497L66.122,94.474L66.173,94.45L66.222,94.427L66.27,94.403L66.316,94.38L66.36,94.357L66.403,94.335L66.443,94.312L66.482,94.29L66.519,94.268L66.549,94.25L66.519,94.232L66.482,94.21L66.443,94.188L66.403,94.165L66.36,94.143L66.316,94.12L66.27,94.097L66.222,94.073L66.173,94.05L66.122,94.026L66.069,94.003L66.015,93.979L65.959,93.955L65.902,93.931L65.843,93.908L65.782,93.884L65.72,93.86L65.657,93.837L65.592,93.813L65.528,93.79L65.389,93.743L65.247,93.697L65.1,93.651L64.947,93.606L64.789,93.562L64.627,93.518L64.46,93.475L64.288,93.433L64.111,93.392L63.93,93.352L63.745,93.313L63.556,93.275L63.363,93.238L63.165,93.202L62.964,93.168L62.759,93.134L62.551,93.102L62.339,93.071L62.123,93.041L61.904,93.013L61.682,92.985L61.457,92.96L61.228,92.935L60.997,92.912L60.763,92.89L60.526,92.87L60.286,92.852L60.044,92.834L59.8,92.819L59.552,92.805L59.303,92.792L59.051,92.781L58.798,92.772L58.542,92.764L58.284,92.758L58.024,92.754L57.763,92.751L57.5,92.75L57.237,92.751Z" style="fill:rgb(255,134,0);"/>
                </g>
            </g>
            <g transform="matrix(1.33909,0,0,0.857707,-12.6081,13.3761)">
                <path d="M41.965,58.251L42.464,58.255L42.96,58.261L43.452,58.269L43.941,58.28L44.426,58.293L44.907,58.309L45.384,58.326L45.856,58.346L46.325,58.368L46.789,58.392L47.248,58.419L47.703,58.447L48.152,58.478L48.597,58.51L49.036,58.545L49.47,58.581L49.898,58.62L50.321,58.661L50.737,58.703L51.148,58.747L51.552,58.793L51.95,58.841L52.342,58.891L52.727,58.942L53.105,58.995L53.476,59.05L53.841,59.107L54.197,59.165L54.547,59.225L54.889,59.286L55.223,59.349L55.549,59.413L55.868,59.479L56.178,59.546L56.48,59.615L56.773,59.685L57.058,59.757L57.197,59.793L57.334,59.83L57.468,59.867L57.6,59.904L57.731,59.942L57.858,59.979L57.984,60.018L58.107,60.056L58.228,60.095L58.346,60.134L58.462,60.173L58.576,60.213L58.687,60.253L58.796,60.293L58.902,60.334L59.006,60.375L59.107,60.416L59.206,60.457L59.302,60.499L59.396,60.541L59.487,60.583L59.575,60.626L59.661,60.668L59.745,60.711L59.825,60.754L59.903,60.798L59.978,60.841L60.051,60.885L60.12,60.93L60.187,60.974L60.252,61.018L60.313,61.063L60.372,61.108L60.428,61.154L60.481,61.199L60.531,61.245L60.578,61.29L60.622,61.337L60.664,61.383L60.702,61.429L60.737,61.476L60.77,61.523L60.799,61.57L60.826,61.617L60.849,61.664L60.87,61.712L60.887,61.759L60.901,61.807L60.912,61.855L60.92,61.903L60.925,61.952L60.926,62L60.926,62.018L60.954,62.351L60.981,62.684L61.004,63.017L61.026,63.351L61.046,63.684L61.063,64.018L61.078,64.352L61.091,64.687L61.102,65.021L61.112,65.356L61.119,65.692L61.124,66.028L61.127,66.364L61.128,66.7L61.128,67.037L61.126,67.375L61.122,67.713L61.116,68.052L61.108,68.391L61.099,68.731L61.088,69.071L61.075,69.412L61.061,69.754L61.046,70.096L61.028,70.439L61.01,70.783L60.989,71.128L60.968,71.473L60.945,71.819L60.92,72.166L60.895,72.514L60.868,72.863L60.839,73.213L60.81,73.563L60.747,74.268L60.68,74.976L60.608,75.689L60.532,76.406L60.453,77.128L60.37,77.855L60.283,78.587L60.194,79.324L60.102,80.067L60.007,80.815L59.91,81.57L59.711,83.098L59.505,84.652L59.295,86.233L59.084,87.845L58.978,88.662L58.872,89.487L58.767,90.321L58.663,91.163L58.56,92.013L58.458,92.873L58.358,93.741L58.26,94.619L58.164,95.506L58.07,96.402L57.979,97.309L57.89,98.225L57.805,99.152L57.723,100.089L57.684,100.562L57.645,101.037L57.607,101.515L57.571,101.996L57.535,102.48L57.5,102.966L57.467,103.455L57.435,103.947L57.403,104.442L57.374,104.94L57.345,105.441L57.317,105.945L57.291,106.451L57.266,106.961L57.243,107.474L57.221,107.989L57.2,108.508L57.181,109.03L57.163,109.555L57.147,110.083L57.132,110.615L57.119,111.149L57.108,111.687L57.098,112.228L57.09,112.772L57.084,113.32L57.079,113.871L57.076,114.426L57.174,120.839L57.148,120.013L57.126,119.194L57.108,118.383L57.094,117.578L57.084,116.779L57.078,115.988L57.075,115.204L57.076,114.426L57,109.433L57,121L56.999,121.048L56.995,121.097L56.989,121.145L56.98,121.193L56.968,121.241L56.954,121.288L56.938,121.336L56.919,121.383L56.898,121.43L56.874,121.477L56.848,121.524L56.82,121.571L56.789,121.617L56.756,121.663L56.72,121.71L56.682,121.755L56.642,121.801L56.6,121.846L56.555,121.892L56.508,121.937L56.458,121.982L56.407,122.026L56.353,122.07L56.297,122.115L56.239,122.159L56.178,122.202L56.116,122.246L56.051,122.289L55.984,122.332L55.915,122.374L55.844,122.417L55.771,122.459L55.696,122.501L55.619,122.543L55.539,122.584L55.458,122.625L55.375,122.666L55.289,122.707L55.202,122.747L55.113,122.787L55.021,122.827L54.928,122.866L54.833,122.905L54.736,122.944L54.637,122.982L54.536,123.021L54.434,123.058L54.329,123.096L54.223,123.133L54.115,123.17L53.893,123.243L53.665,123.315L53.429,123.385L53.187,123.454L52.938,123.521L52.682,123.587L52.42,123.651L52.152,123.714L51.877,123.775L51.597,123.835L51.31,123.893L51.018,123.95L50.72,124.005L50.416,124.058L50.107,124.109L49.793,124.159L49.473,124.207L49.148,124.253L48.818,124.297L48.484,124.339L48.145,124.38L47.801,124.419L47.452,124.455L47.1,124.49L46.743,124.522L46.382,124.553L46.017,124.581L45.648,124.608L45.275,124.632L44.899,124.654L44.52,124.674L44.137,124.691L43.75,124.707L43.361,124.72L42.969,124.731L42.573,124.739L42.175,124.745L41.775,124.749L41.372,124.75L40.968,124.749L40.568,124.745L40.17,124.739L39.775,124.731L39.382,124.72L38.993,124.707L38.607,124.691L38.224,124.674L37.844,124.654L37.468,124.632L37.095,124.608L36.726,124.581L36.361,124.553L36,124.522L35.643,124.49L35.291,124.455L34.942,124.419L34.599,124.38L34.259,124.339L33.925,124.297L33.595,124.253L33.27,124.207L32.951,124.159L32.636,124.109L32.327,124.058L32.023,124.005L31.725,123.95L31.433,123.893L31.146,123.835L30.866,123.775L30.591,123.714L30.323,123.651L30.061,123.587L29.805,123.521L29.556,123.454L29.314,123.385L29.078,123.315L28.85,123.243L28.628,123.17L28.52,123.133L28.414,123.096L28.309,123.058L28.207,123.021L28.106,122.982L28.007,122.944L27.91,122.905L27.815,122.866L27.722,122.827L27.631,122.787L27.541,122.747L27.454,122.707L27.369,122.666L27.285,122.625L27.204,122.584L27.125,122.543L27.047,122.501L26.972,122.459L26.899,122.417L26.828,122.374L26.759,122.332L26.692,122.289L26.627,122.246L26.565,122.202L26.505,122.159L26.446,122.115L26.39,122.07L26.336,122.026L26.285,121.982L26.236,121.937L26.188,121.892L26.144,121.846L26.101,121.801L26.061,121.755L26.023,121.71L25.987,121.663L25.954,121.617L25.923,121.571L25.895,121.524L25.869,121.477L25.845,121.43L25.824,121.383L25.805,121.336L25.789,121.288L25.775,121.241L25.764,121.193L25.755,121.145L25.748,121.097L25.744,121.048L25.743,121C25.743,121 25.743,109.308 25.743,109.308L25.726,108.823L25.707,108.341L25.688,107.861L25.667,107.384L25.645,106.909L25.621,106.437L25.597,105.968L25.571,105.501L25.545,105.037L25.517,104.575L25.488,104.116L25.459,103.659L25.428,103.205L25.396,102.753L25.33,101.857L25.261,100.97L25.188,100.092L25.112,99.224L25.033,98.364L24.951,97.513L24.867,96.671L24.78,95.838L24.692,95.012L24.601,94.195L24.509,93.386L24.416,92.585L24.321,91.792L24.225,91.006L24.128,90.227L24.031,89.456L23.933,88.691L23.737,87.183L23.541,85.701L23.348,84.243L23.158,82.81L22.974,81.398L22.885,80.7L22.798,80.007L22.713,79.319L22.63,78.636L22.55,77.958L22.473,77.283L22.399,76.613L22.328,75.948L22.26,75.286L22.196,74.627L22.136,73.973L22.08,73.322L22.029,72.674L21.981,72.029L21.96,71.708L21.939,71.387L21.919,71.067L21.901,70.748L21.884,70.429L21.869,70.111L21.854,69.794L21.841,69.477L21.83,69.161L21.819,68.846L21.811,68.531L21.803,68.216L21.797,67.902L21.793,67.588L21.79,67.275L21.789,66.962L21.789,66.65L21.791,66.338L21.795,66.027L21.8,65.715L21.807,65.404L21.815,65.094L21.825,64.783L21.837,64.473L21.851,64.164L21.867,63.854L21.884,63.545L21.904,63.235L21.925,62.926L21.948,62.617L21.973,62.309L22,62L22.002,61.952L22.006,61.903L22.014,61.855L22.025,61.807L22.04,61.759L22.057,61.712L22.077,61.664L22.101,61.617L22.127,61.57L22.156,61.523L22.189,61.476L22.224,61.429L22.263,61.383L22.304,61.337L22.349,61.29L22.396,61.245L22.446,61.199L22.499,61.154L22.555,61.108L22.613,61.063L22.675,61.018L22.739,60.974L22.806,60.93L22.876,60.885L22.948,60.841L23.023,60.798L23.101,60.754L23.182,60.711L23.265,60.668L23.351,60.626L23.439,60.583L23.531,60.541L23.624,60.499L23.72,60.457L23.819,60.416L23.921,60.375L24.024,60.334L24.131,60.293L24.239,60.253L24.351,60.213L24.464,60.173L24.58,60.134L24.699,60.095L24.819,60.056L24.943,60.018L25.068,59.979L25.196,59.942L25.326,59.904L25.458,59.867L25.593,59.83L25.73,59.793L25.869,59.757L26.153,59.685L26.447,59.615L26.749,59.546L27.059,59.479L27.377,59.413L27.703,59.349L28.038,59.286L28.379,59.225L28.729,59.165L29.086,59.107L29.45,59.05L29.821,58.995L30.199,58.942L30.584,58.891L30.976,58.841L31.374,58.793L31.778,58.747L32.189,58.703L32.606,58.661L33.028,58.62L33.456,58.581L33.89,58.545L34.329,58.51L34.774,58.478L35.224,58.447L35.678,58.419L36.137,58.392L36.601,58.368L37.07,58.346L37.543,58.326L38.02,58.309L38.501,58.293L38.986,58.28L39.474,58.269L39.967,58.261L40.462,58.255L40.961,58.251L41.463,58.25L41.965,58.251ZM40.98,60.525L40.501,60.528L40.024,60.534L39.551,60.542L39.082,60.552L38.616,60.565L38.155,60.58L37.697,60.597L37.244,60.616L36.796,60.637L36.352,60.66L35.913,60.685L35.479,60.712L35.05,60.742L34.626,60.773L34.209,60.805L33.796,60.84L33.39,60.877L32.99,60.915L32.596,60.955L32.209,60.997L31.828,61.04L31.455,61.085L31.088,61.132L30.729,61.18L30.377,61.229L30.033,61.28L29.697,61.332L29.369,61.386L29.049,61.44L28.739,61.496L28.437,61.553L28.144,61.611L27.86,61.669L27.587,61.729L27.323,61.789L27.069,61.849L26.821,61.912L26.709,61.941L26.594,61.972L26.483,62.002L26.374,62.033L26.268,62.064L26.165,62.094L26.065,62.125L25.968,62.155L25.874,62.185L25.783,62.215L25.696,62.245L25.612,62.274L25.531,62.303L25.454,62.332L25.38,62.36L25.309,62.388L25.242,62.415L25.179,62.441L25.12,62.467L25.064,62.492L25.012,62.516L24.964,62.539L24.946,62.548L24.93,62.752L24.908,63.05L24.887,63.349L24.868,63.647L24.852,63.946L24.836,64.246L24.823,64.546L24.811,64.846L24.801,65.146L24.793,65.447L24.786,65.749L24.781,66.051L24.778,66.353L24.776,66.656L24.776,66.96L24.777,67.264L24.78,67.568L24.784,67.874L24.79,68.18L24.797,68.486L24.806,68.793L24.816,69.101L24.827,69.41L24.84,69.72L24.854,70.03L24.869,70.341L24.886,70.653L24.904,70.965L24.923,71.279L24.943,71.593L24.964,71.907L25.011,72.541L25.062,73.178L25.117,73.819L25.176,74.465L25.239,75.114L25.305,75.768L25.376,76.426L25.449,77.089L25.526,77.757L25.605,78.43L25.687,79.109L25.772,79.792L25.858,80.481L25.947,81.176L26.131,82.584L26.32,84.015L26.513,85.473L26.709,86.957L26.906,88.469L27.004,89.237L27.102,90.011L27.199,90.794L27.295,91.584L27.391,92.382L27.485,93.188L27.578,94.002L27.669,94.824L27.758,95.656L27.845,96.496L27.93,97.344L28.012,98.202L28.092,99.069L28.168,99.945L28.242,100.83L28.312,101.725L28.379,102.629L28.411,103.086L28.442,103.545L28.472,104.006L28.501,104.47L28.529,104.936L28.556,105.404L28.582,105.876L28.606,106.35L28.63,106.826L28.652,107.306L28.673,107.787L28.693,108.272L28.712,108.759L28.73,109.277L28.73,120.621L28.757,120.636L28.793,120.656L28.833,120.677L28.875,120.699L28.92,120.722L28.968,120.746L29.019,120.77L29.073,120.795L29.13,120.82L29.189,120.846L29.251,120.872L29.315,120.899L29.383,120.926L29.452,120.953L29.525,120.98L29.599,121.008L29.677,121.036L29.756,121.064L29.832,121.09L30.01,121.148L30.191,121.205L30.38,121.261L30.578,121.317L30.784,121.373L30.999,121.428L31.221,121.483L31.451,121.537L31.689,121.59L31.933,121.642L32.185,121.693L32.444,121.743L32.709,121.792L32.981,121.839L33.259,121.886L33.543,121.93L33.833,121.974L34.128,122.016L34.429,122.056L34.736,122.095L35.048,122.132L35.364,122.168L35.686,122.202L36.012,122.234L36.343,122.264L36.679,122.292L37.018,122.319L37.362,122.343L37.71,122.366L38.061,122.386L38.416,122.405L38.775,122.421L39.137,122.436L39.502,122.448L39.87,122.458L40.242,122.466L40.616,122.472L40.992,122.475L41.372,122.476L41.751,122.475L42.127,122.472L42.502,122.466L42.873,122.458L43.241,122.448L43.606,122.436L43.968,122.421L44.327,122.405L44.682,122.386L45.034,122.366L45.381,122.343L45.725,122.319L46.065,122.292L46.4,122.264L46.731,122.234L47.057,122.202L47.379,122.168L47.696,122.132L48.007,122.095L48.314,122.056L48.615,122.016L48.911,121.974L49.201,121.93L49.484,121.886L49.762,121.839L50.034,121.792L50.299,121.743L50.558,121.693L50.81,121.642L51.054,121.59L51.292,121.537L51.522,121.483L51.744,121.428L51.959,121.373L52.165,121.317L52.363,121.261L52.553,121.205L52.733,121.148L52.911,121.09L52.987,121.064L53.067,121.036L53.144,121.008L53.219,120.98L53.291,120.953L53.361,120.926L53.428,120.899L53.493,120.872L53.554,120.846L53.614,120.82L53.67,120.795L53.724,120.77L53.775,120.746L53.823,120.722L53.868,120.699L53.91,120.677L53.95,120.656L53.987,120.636L54.013,120.621L54.013,109.433L54.179,109.432L54.195,108.969L54.214,108.442L54.235,107.918L54.258,107.397L54.281,106.879L54.306,106.364L54.333,105.853L54.36,105.344L54.389,104.839L54.42,104.336L54.451,103.836L54.484,103.34L54.517,102.846L54.552,102.355L54.588,101.867L54.625,101.382L54.663,100.899L54.702,100.42L54.742,99.942L54.825,98.997L54.911,98.063L55,97.139L55.092,96.225L55.186,95.322L55.283,94.428L55.382,93.545L55.483,92.671L55.585,91.807L55.689,90.952L55.794,90.106L55.899,89.269L56.005,88.441L56.111,87.62L56.323,86.006L56.533,84.424L56.738,82.871L56.938,81.347L57.034,80.596L57.128,79.851L57.22,79.113L57.309,78.381L57.394,77.655L57.477,76.934L57.555,76.22L57.63,75.511L57.701,74.807L57.767,74.109L57.829,73.414L57.858,73.07L57.886,72.726L57.913,72.383L57.938,72.042L57.962,71.701L57.984,71.361L58.006,71.023L58.025,70.685L58.044,70.349L58.061,70.013L58.076,69.678L58.09,69.344L58.102,69.011L58.113,68.679L58.122,68.348L58.129,68.017L58.135,67.688L58.139,67.359L58.141,67.03L58.141,66.703L58.14,66.376L58.137,66.049L58.132,65.724L58.125,65.398L58.116,65.074L58.105,64.749L58.093,64.426L58.078,64.102L58.061,63.78L58.042,63.457L58.021,63.135L57.998,62.813L57.977,62.547L57.962,62.539L57.914,62.516L57.862,62.492L57.807,62.467L57.747,62.441L57.684,62.415L57.617,62.388L57.547,62.36L57.473,62.332L57.395,62.303L57.314,62.274L57.23,62.245L57.143,62.215L57.052,62.185L56.958,62.155L56.862,62.125L56.762,62.094L56.659,62.064L56.553,62.033L56.444,62.002L56.332,61.972L56.217,61.941L56.105,61.912L55.857,61.849L55.603,61.789L55.34,61.729L55.066,61.669L54.783,61.611L54.49,61.553L54.188,61.496L53.877,61.44L53.557,61.386L53.229,61.332L52.893,61.28L52.549,61.229L52.198,61.18L51.838,61.132L51.472,61.085L51.098,61.04L50.717,60.997L50.33,60.955L49.936,60.915L49.536,60.877L49.13,60.84L48.718,60.805L48.3,60.773L47.876,60.742L47.448,60.712L47.014,60.685L46.574,60.66L46.131,60.637L45.682,60.616L45.229,60.597L44.772,60.58L44.31,60.565L43.844,60.552L43.375,60.542L42.902,60.534L42.426,60.528L41.946,60.525L41.463,60.524L40.98,60.525Z" style="fill:rgb(255,134,0);"/>
            </g>
            <g transform="matrix(1.33909,0,0,0.857707,-12.6081,13.3761)">
                <clipPath id="_clip2">
                    <rect x="14.073" y="55" width="49" height="16"/>
                </clipPath>
                <g clip-path="url(#_clip2)">
                    <path d="M41.965,58.251L42.464,58.255L42.96,58.261L43.452,58.269L43.941,58.28L44.426,58.293L44.907,58.309L45.384,58.326L45.856,58.346L46.325,58.368L46.789,58.392L47.248,58.419L47.703,58.447L48.152,58.478L48.597,58.51L49.036,58.545L49.47,58.581L49.898,58.62L50.321,58.661L50.737,58.703L51.148,58.747L51.552,58.793L51.95,58.841L52.342,58.891L52.727,58.942L53.105,58.995L53.476,59.05L53.841,59.107L54.197,59.165L54.547,59.225L54.889,59.286L55.223,59.349L55.549,59.413L55.868,59.479L56.178,59.546L56.48,59.615L56.773,59.685L57.058,59.757L57.197,59.793L57.334,59.83L57.468,59.867L57.6,59.904L57.731,59.942L57.858,59.979L57.984,60.018L58.107,60.056L58.228,60.095L58.346,60.134L58.462,60.173L58.576,60.213L58.687,60.253L58.796,60.293L58.902,60.334L59.006,60.375L59.107,60.416L59.206,60.457L59.302,60.499L59.396,60.541L59.487,60.583L59.575,60.626L59.661,60.668L59.745,60.711L59.825,60.754L59.903,60.798L59.978,60.841L60.051,60.885L60.12,60.93L60.187,60.974L60.252,61.018L60.313,61.063L60.372,61.108L60.428,61.154L60.481,61.199L60.531,61.245L60.578,61.29L60.622,61.337L60.664,61.383L60.702,61.429L60.737,61.476L60.77,61.523L60.799,61.57L60.826,61.617L60.849,61.664L60.87,61.712L60.887,61.759L60.901,61.807L60.912,61.855L60.92,61.903L60.925,61.952L60.926,62L60.926,62.018L60.954,62.351L60.981,62.684L61.004,63.017L61.026,63.351L61.046,63.684L61.063,64.018L61.078,64.352L61.091,64.687L61.102,65.021L61.112,65.356L61.119,65.692L61.124,66.028L61.127,66.364L61.128,66.7L61.128,67.037L61.126,67.375L61.122,67.713L61.116,68.052L61.108,68.391L61.099,68.731L61.088,69.071L61.075,69.412L61.061,69.754L61.046,70.096L61.028,70.439L61.01,70.783L60.989,71.128L60.968,71.473L60.945,71.819L60.92,72.166L60.895,72.514L60.868,72.863L60.839,73.213L60.81,73.563L60.747,74.268L60.68,74.976L60.608,75.689L60.532,76.406L60.453,77.128L60.37,77.855L60.283,78.587L60.194,79.324L60.102,80.067L60.007,80.815L59.91,81.57L59.711,83.098L59.505,84.652L59.295,86.233L59.084,87.845L58.978,88.662L58.872,89.487L58.767,90.321L58.663,91.163L58.56,92.013L58.458,92.873L58.358,93.741L58.26,94.619L58.164,95.506L58.07,96.402L57.979,97.309L57.89,98.225L57.805,99.152L57.723,100.089L57.684,100.562L57.645,101.037L57.607,101.515L57.571,101.996L57.535,102.48L57.5,102.966L57.467,103.455L57.435,103.947L57.403,104.442L57.374,104.94L57.345,105.441L57.317,105.945L57.291,106.451L57.266,106.961L57.243,107.474L57.221,107.989L57.2,108.508L57.181,109.03L57.163,109.555L57.147,110.083L57.132,110.615L57.119,111.149L57.108,111.687L57.098,112.228L57.09,112.772L57.084,113.32L57.079,113.871L57.076,114.426L57.174,120.839L57.148,120.013L57.126,119.194L57.108,118.383L57.094,117.578L57.084,116.779L57.078,115.988L57.075,115.204L57.076,114.426L57,109.433L57,121L56.999,121.048L56.995,121.097L56.989,121.145L56.98,121.193L56.968,121.241L56.954,121.288L56.938,121.336L56.919,121.383L56.898,121.43L56.874,121.477L56.848,121.524L56.82,121.571L56.789,121.617L56.756,121.663L56.72,121.71L56.682,121.755L56.642,121.801L56.6,121.846L56.555,121.892L56.508,121.937L56.458,121.982L56.407,122.026L56.353,122.07L56.297,122.115L56.239,122.159L56.178,122.202L56.116,122.246L56.051,122.289L55.984,122.332L55.915,122.374L55.844,122.417L55.771,122.459L55.696,122.501L55.619,122.543L55.539,122.584L55.458,122.625L55.375,122.666L55.289,122.707L55.202,122.747L55.113,122.787L55.021,122.827L54.928,122.866L54.833,122.905L54.736,122.944L54.637,122.982L54.536,123.021L54.434,123.058L54.329,123.096L54.223,123.133L54.115,123.17L53.893,123.243L53.665,123.315L53.429,123.385L53.187,123.454L52.938,123.521L52.682,123.587L52.42,123.651L52.152,123.714L51.877,123.775L51.597,123.835L51.31,123.893L51.018,123.95L50.72,124.005L50.416,124.058L50.107,124.109L49.793,124.159L49.473,124.207L49.148,124.253L48.818,124.297L48.484,124.339L48.145,124.38L47.801,124.419L47.452,124.455L47.1,124.49L46.743,124.522L46.382,124.553L46.017,124.581L45.648,124.608L45.275,124.632L44.899,124.654L44.52,124.674L44.137,124.691L43.75,124.707L43.361,124.72L42.969,124.731L42.573,124.739L42.175,124.745L41.775,124.749L41.372,124.75L40.968,124.749L40.568,124.745L40.17,124.739L39.775,124.731L39.382,124.72L38.993,124.707L38.607,124.691L38.224,124.674L37.844,124.654L37.468,124.632L37.095,124.608L36.726,124.581L36.361,124.553L36,124.522L35.643,124.49L35.291,124.455L34.942,124.419L34.599,124.38L34.259,124.339L33.925,124.297L33.595,124.253L33.27,124.207L32.951,124.159L32.636,124.109L32.327,124.058L32.023,124.005L31.725,123.95L31.433,123.893L31.146,123.835L30.866,123.775L30.591,123.714L30.323,123.651L30.061,123.587L29.805,123.521L29.556,123.454L29.314,123.385L29.078,123.315L28.85,123.243L28.628,123.17L28.52,123.133L28.414,123.096L28.309,123.058L28.207,123.021L28.106,122.982L28.007,122.944L27.91,122.905L27.815,122.866L27.722,122.827L27.631,122.787L27.541,122.747L27.454,122.707L27.369,122.666L27.285,122.625L27.204,122.584L27.125,122.543L27.047,122.501L26.972,122.459L26.899,122.417L26.828,122.374L26.759,122.332L26.692,122.289L26.627,122.246L26.565,122.202L26.505,122.159L26.446,122.115L26.39,122.07L26.336,122.026L26.285,121.982L26.236,121.937L26.188,121.892L26.144,121.846L26.101,121.801L26.061,121.755L26.023,121.71L25.987,121.663L25.954,121.617L25.923,121.571L25.895,121.524L25.869,121.477L25.845,121.43L25.824,121.383L25.805,121.336L25.789,121.288L25.775,121.241L25.764,121.193L25.755,121.145L25.748,121.097L25.744,121.048L25.743,121C25.743,121 25.743,109.308 25.743,109.308L25.726,108.823L25.707,108.341L25.688,107.861L25.667,107.384L25.645,106.909L25.621,106.437L25.597,105.968L25.571,105.501L25.545,105.037L25.517,104.575L25.488,104.116L25.459,103.659L25.428,103.205L25.396,102.753L25.33,101.857L25.261,100.97L25.188,100.092L25.112,99.224L25.033,98.364L24.951,97.513L24.867,96.671L24.78,95.838L24.692,95.012L24.601,94.195L24.509,93.386L24.416,92.585L24.321,91.792L24.225,91.006L24.128,90.227L24.031,89.456L23.933,88.691L23.737,87.183L23.541,85.701L23.348,84.243L23.158,82.81L22.974,81.398L22.885,80.7L22.798,80.007L22.713,79.319L22.63,78.636L22.55,77.958L22.473,77.283L22.399,76.613L22.328,75.948L22.26,75.286L22.196,74.627L22.136,73.973L22.08,73.322L22.029,72.674L21.981,72.029L21.96,71.708L21.939,71.387L21.919,71.067L21.901,70.748L21.884,70.429L21.869,70.111L21.854,69.794L21.841,69.477L21.83,69.161L21.819,68.846L21.811,68.531L21.803,68.216L21.797,67.902L21.793,67.588L21.79,67.275L21.789,66.962L21.789,66.65L21.791,66.338L21.795,66.027L21.8,65.715L21.807,65.404L21.815,65.094L21.825,64.783L21.837,64.473L21.851,64.164L21.867,63.854L21.884,63.545L21.904,63.235L21.925,62.926L21.948,62.617L21.973,62.309L22,62L22.002,61.952L22.006,61.903L22.014,61.855L22.025,61.807L22.04,61.759L22.057,61.712L22.077,61.664L22.101,61.617L22.127,61.57L22.156,61.523L22.189,61.476L22.224,61.429L22.263,61.383L22.304,61.337L22.349,61.29L22.396,61.245L22.446,61.199L22.499,61.154L22.555,61.108L22.613,61.063L22.675,61.018L22.739,60.974L22.806,60.93L22.876,60.885L22.948,60.841L23.023,60.798L23.101,60.754L23.182,60.711L23.265,60.668L23.351,60.626L23.439,60.583L23.531,60.541L23.624,60.499L23.72,60.457L23.819,60.416L23.921,60.375L24.024,60.334L24.131,60.293L24.239,60.253L24.351,60.213L24.464,60.173L24.58,60.134L24.699,60.095L24.819,60.056L24.943,60.018L25.068,59.979L25.196,59.942L25.326,59.904L25.458,59.867L25.593,59.83L25.73,59.793L25.869,59.757L26.153,59.685L26.447,59.615L26.749,59.546L27.059,59.479L27.377,59.413L27.703,59.349L28.038,59.286L28.379,59.225L28.729,59.165L29.086,59.107L29.45,59.05L29.821,58.995L30.199,58.942L30.584,58.891L30.976,58.841L31.374,58.793L31.778,58.747L32.189,58.703L32.606,58.661L33.028,58.62L33.456,58.581L33.89,58.545L34.329,58.51L34.774,58.478L35.224,58.447L35.678,58.419L36.137,58.392L36.601,58.368L37.07,58.346L37.543,58.326L38.02,58.309L38.501,58.293L38.986,58.28L39.474,58.269L39.967,58.261L40.462,58.255L40.961,58.251L41.463,58.25L41.965,58.251ZM40.98,60.525L40.501,60.528L40.024,60.534L39.551,60.542L39.082,60.552L38.616,60.565L38.155,60.58L37.697,60.597L37.244,60.616L36.796,60.637L36.352,60.66L35.913,60.685L35.479,60.712L35.05,60.742L34.626,60.773L34.209,60.805L33.796,60.84L33.39,60.877L32.99,60.915L32.596,60.955L32.209,60.997L31.828,61.04L31.455,61.085L31.088,61.132L30.729,61.18L30.377,61.229L30.033,61.28L29.697,61.332L29.369,61.386L29.049,61.44L28.739,61.496L28.437,61.553L28.144,61.611L27.86,61.669L27.587,61.729L27.323,61.789L27.069,61.849L26.821,61.912L26.709,61.941L26.594,61.972L26.483,62.002L26.374,62.033L26.268,62.064L26.165,62.094L26.065,62.125L25.968,62.155L25.874,62.185L25.783,62.215L25.696,62.245L25.612,62.274L25.531,62.303L25.454,62.332L25.38,62.36L25.309,62.388L25.242,62.415L25.179,62.441L25.12,62.467L25.064,62.492L25.012,62.516L24.964,62.539L24.946,62.548L24.93,62.752L24.908,63.05L24.887,63.349L24.868,63.647L24.852,63.946L24.836,64.246L24.823,64.546L24.811,64.846L24.801,65.146L24.793,65.447L24.786,65.749L24.781,66.051L24.778,66.353L24.776,66.656L24.776,66.96L24.777,67.264L24.78,67.568L24.784,67.874L24.79,68.18L24.797,68.486L24.806,68.793L24.816,69.101L24.827,69.41L24.84,69.72L24.854,70.03L24.869,70.341L24.886,70.653L24.904,70.965L24.923,71.279L24.943,71.593L24.964,71.907L25.011,72.541L25.062,73.178L25.117,73.819L25.176,74.465L25.239,75.114L25.305,75.768L25.376,76.426L25.449,77.089L25.526,77.757L25.605,78.43L25.687,79.109L25.772,79.792L25.858,80.481L25.947,81.176L26.131,82.584L26.32,84.015L26.513,85.473L26.709,86.957L26.906,88.469L27.004,89.237L27.102,90.011L27.199,90.794L27.295,91.584L27.391,92.382L27.485,93.188L27.578,94.002L27.669,94.824L27.758,95.656L27.845,96.496L27.93,97.344L28.012,98.202L28.092,99.069L28.168,99.945L28.242,100.83L28.312,101.725L28.379,102.629L28.411,103.086L28.442,103.545L28.472,104.006L28.501,104.47L28.529,104.936L28.556,105.404L28.582,105.876L28.606,106.35L28.63,106.826L28.652,107.306L28.673,107.787L28.693,108.272L28.712,108.759L28.73,109.277L28.73,120.621L28.757,120.636L28.793,120.656L28.833,120.677L28.875,120.699L28.92,120.722L28.968,120.746L29.019,120.77L29.073,120.795L29.13,120.82L29.189,120.846L29.251,120.872L29.315,120.899L29.383,120.926L29.452,120.953L29.525,120.98L29.599,121.008L29.677,121.036L29.756,121.064L29.832,121.09L30.01,121.148L30.191,121.205L30.38,121.261L30.578,121.317L30.784,121.373L30.999,121.428L31.221,121.483L31.451,121.537L31.689,121.59L31.933,121.642L32.185,121.693L32.444,121.743L32.709,121.792L32.981,121.839L33.259,121.886L33.543,121.93L33.833,121.974L34.128,122.016L34.429,122.056L34.736,122.095L35.048,122.132L35.364,122.168L35.686,122.202L36.012,122.234L36.343,122.264L36.679,122.292L37.018,122.319L37.362,122.343L37.71,122.366L38.061,122.386L38.416,122.405L38.775,122.421L39.137,122.436L39.502,122.448L39.87,122.458L40.242,122.466L40.616,122.472L40.992,122.475L41.372,122.476L41.751,122.475L42.127,122.472L42.502,122.466L42.873,122.458L43.241,122.448L43.606,122.436L43.968,122.421L44.327,122.405L44.682,122.386L45.034,122.366L45.381,122.343L45.725,122.319L46.065,122.292L46.4,122.264L46.731,122.234L47.057,122.202L47.379,122.168L47.696,122.132L48.007,122.095L48.314,122.056L48.615,122.016L48.911,121.974L49.201,121.93L49.484,121.886L49.762,121.839L50.034,121.792L50.299,121.743L50.558,121.693L50.81,121.642L51.054,121.59L51.292,121.537L51.522,121.483L51.744,121.428L51.959,121.373L52.165,121.317L52.363,121.261L52.553,121.205L52.733,121.148L52.911,121.09L52.987,121.064L53.067,121.036L53.144,121.008L53.219,120.98L53.291,120.953L53.361,120.926L53.428,120.899L53.493,120.872L53.554,120.846L53.614,120.82L53.67,120.795L53.724,120.77L53.775,120.746L53.823,120.722L53.868,120.699L53.91,120.677L53.95,120.656L53.987,120.636L54.013,120.621L54.013,109.433L54.179,109.432L54.195,108.969L54.214,108.442L54.235,107.918L54.258,107.397L54.281,106.879L54.306,106.364L54.333,105.853L54.36,105.344L54.389,104.839L54.42,104.336L54.451,103.836L54.484,103.34L54.517,102.846L54.552,102.355L54.588,101.867L54.625,101.382L54.663,100.899L54.702,100.42L54.742,99.942L54.825,98.997L54.911,98.063L55,97.139L55.092,96.225L55.186,95.322L55.283,94.428L55.382,93.545L55.483,92.671L55.585,91.807L55.689,90.952L55.794,90.106L55.899,89.269L56.005,88.441L56.111,87.62L56.323,86.006L56.533,84.424L56.738,82.871L56.938,81.347L57.034,80.596L57.128,79.851L57.22,79.113L57.309,78.381L57.394,77.655L57.477,76.934L57.555,76.22L57.63,75.511L57.701,74.807L57.767,74.109L57.829,73.414L57.858,73.07L57.886,72.726L57.913,72.383L57.938,72.042L57.962,71.701L57.984,71.361L58.006,71.023L58.025,70.685L58.044,70.349L58.061,70.013L58.076,69.678L58.09,69.344L58.102,69.011L58.113,68.679L58.122,68.348L58.129,68.017L58.135,67.688L58.139,67.359L58.141,67.03L58.141,66.703L58.14,66.376L58.137,66.049L58.132,65.724L58.125,65.398L58.116,65.074L58.105,64.749L58.093,64.426L58.078,64.102L58.061,63.78L58.042,63.457L58.021,63.135L57.998,62.813L57.977,62.547L57.962,62.539L57.914,62.516L57.862,62.492L57.807,62.467L57.747,62.441L57.684,62.415L57.617,62.388L57.547,62.36L57.473,62.332L57.395,62.303L57.314,62.274L57.23,62.245L57.143,62.215L57.052,62.185L56.958,62.155L56.862,62.125L56.762,62.094L56.659,62.064L56.553,62.033L56.444,62.002L56.332,61.972L56.217,61.941L56.105,61.912L55.857,61.849L55.603,61.789L55.34,61.729L55.066,61.669L54.783,61.611L54.49,61.553L54.188,61.496L53.877,61.44L53.557,61.386L53.229,61.332L52.893,61.28L52.549,61.229L52.198,61.18L51.838,61.132L51.472,61.085L51.098,61.04L50.717,60.997L50.33,60.955L49.936,60.915L49.536,60.877L49.13,60.84L48.718,60.805L48.3,60.773L47.876,60.742L47.448,60.712L47.014,60.685L46.574,60.66L46.131,60.637L45.682,60.616L45.229,60.597L44.772,60.58L44.31,60.565L43.844,60.552L43.375,60.542L42.902,60.534L42.426,60.528L41.946,60.525L41.463,60.524L40.98,60.525Z" style="fill:rgb(217,217,217);"/>
                </g>
            </g>
            <g transform="matrix(2.48219,0,0,1.1696,-99.8109,-43.6809)">
                <path d="M57.771,91.501L58.04,91.504L58.307,91.508L58.573,91.514L58.837,91.522L59.098,91.532L59.358,91.543L59.615,91.556L59.87,91.57L60.123,91.587L60.373,91.604L60.621,91.624L60.866,91.645L61.109,91.667L61.348,91.691L61.585,91.716L61.819,91.743L62.05,91.771L62.278,91.801L62.503,91.832L62.725,91.865L62.943,91.898L63.158,91.933L63.369,91.97L63.577,92.008L63.781,92.047L63.981,92.087L64.177,92.128L64.37,92.171L64.558,92.215L64.743,92.26L64.923,92.306L65.099,92.353L65.271,92.401L65.438,92.451L65.601,92.501L65.759,92.553L65.913,92.605L65.988,92.632L66.062,92.659L66.134,92.686L66.206,92.713L66.276,92.74L66.345,92.768L66.413,92.796L66.479,92.824L66.544,92.853L66.608,92.882L66.671,92.911L66.732,92.94L66.792,92.969L66.851,92.999L66.908,93.028L66.964,93.058L67.019,93.088L67.072,93.119L67.124,93.149L67.174,93.18L67.223,93.211L67.271,93.242L67.318,93.273L67.362,93.305L67.406,93.337L67.448,93.368L67.488,93.4L67.528,93.433L67.565,93.465L67.601,93.498L67.636,93.53L67.669,93.563L67.701,93.596L67.731,93.629L67.759,93.663L67.787,93.696L67.812,93.73L67.836,93.763L67.858,93.797L67.879,93.831L67.898,93.866L67.916,93.9L67.931,93.934L67.946,93.969L67.958,94.004L67.969,94.039L67.979,94.074L67.986,94.109L67.992,94.144L67.997,94.179L67.999,94.214L68,94.25L67.999,94.286L67.997,94.321L67.992,94.356L67.986,94.391L67.979,94.426L67.969,94.461L67.958,94.496L67.946,94.531L67.931,94.566L67.916,94.6L67.898,94.634L67.879,94.669L67.858,94.703L67.836,94.737L67.812,94.77L67.787,94.804L67.759,94.837L67.731,94.871L67.701,94.904L67.669,94.937L67.636,94.97L67.601,95.002L67.565,95.035L67.528,95.067L67.488,95.1L67.448,95.132L67.406,95.163L67.362,95.195L67.318,95.227L67.271,95.258L67.223,95.289L67.174,95.32L67.124,95.351L67.072,95.381L67.019,95.412L66.964,95.442L66.908,95.472L66.851,95.501L66.792,95.531L66.732,95.56L66.671,95.589L66.608,95.618L66.544,95.647L66.479,95.676L66.413,95.704L66.345,95.732L66.276,95.76L66.206,95.787L66.134,95.814L66.062,95.841L65.988,95.868L65.913,95.895L65.759,95.947L65.601,95.999L65.438,96.049L65.271,96.099L65.099,96.147L64.923,96.194L64.743,96.24L64.558,96.285L64.37,96.329L64.177,96.372L63.981,96.413L63.781,96.453L63.577,96.492L63.369,96.53L63.158,96.567L62.943,96.602L62.725,96.635L62.503,96.668L62.278,96.699L62.05,96.729L61.819,96.757L61.585,96.784L61.348,96.809L61.109,96.833L60.866,96.855L60.621,96.876L60.373,96.896L60.123,96.913L59.87,96.93L59.615,96.944L59.358,96.957L59.098,96.968L58.837,96.978L58.573,96.986L58.307,96.992L58.04,96.996L57.771,96.999L57.5,97L57.229,96.999L56.96,96.996L56.693,96.992L56.427,96.986L56.163,96.978L55.902,96.968L55.642,96.957L55.385,96.944L55.13,96.93L54.877,96.913L54.627,96.896L54.379,96.876L54.134,96.855L53.891,96.833L53.652,96.809L53.415,96.784L53.181,96.757L52.95,96.729L52.722,96.699L52.497,96.668L52.275,96.635L52.057,96.602L51.842,96.567L51.631,96.53L51.423,96.492L51.219,96.453L51.019,96.413L50.823,96.372L50.63,96.329L50.442,96.285L50.257,96.24L50.077,96.194L49.901,96.147L49.729,96.099L49.562,96.049L49.399,95.999L49.241,95.947L49.087,95.895L49.012,95.868L48.938,95.841L48.866,95.814L48.794,95.787L48.724,95.76L48.655,95.732L48.587,95.704L48.521,95.676L48.456,95.647L48.392,95.618L48.329,95.589L48.268,95.56L48.208,95.531L48.149,95.501L48.092,95.472L48.036,95.442L47.981,95.412L47.928,95.381L47.876,95.351L47.826,95.32L47.777,95.289L47.729,95.258L47.682,95.227L47.638,95.195L47.594,95.163L47.552,95.132L47.512,95.1L47.472,95.067L47.435,95.035L47.399,95.002L47.364,94.97L47.331,94.937L47.299,94.904L47.269,94.871L47.241,94.837L47.213,94.804L47.188,94.77L47.164,94.737L47.142,94.703L47.121,94.669L47.102,94.634L47.084,94.6L47.069,94.566L47.054,94.531L47.042,94.496L47.031,94.461L47.021,94.426L47.014,94.391L47.008,94.356L47.003,94.321L47.001,94.286L47,94.25L47.001,94.214L47.003,94.179L47.008,94.144L47.014,94.109L47.021,94.074L47.031,94.039L47.042,94.004L47.054,93.969L47.069,93.934L47.084,93.9L47.102,93.866L47.121,93.831L47.142,93.797L47.164,93.763L47.188,93.73L47.213,93.696L47.241,93.663L47.269,93.629L47.299,93.596L47.331,93.563L47.364,93.53L47.399,93.498L47.435,93.465L47.472,93.433L47.512,93.4L47.552,93.368L47.594,93.337L47.638,93.305L47.682,93.273L47.729,93.242L47.777,93.211L47.826,93.18L47.876,93.149L47.928,93.119L47.981,93.088L48.036,93.058L48.092,93.028L48.149,92.999L48.208,92.969L48.268,92.94L48.329,92.911L48.392,92.882L48.456,92.853L48.521,92.824L48.587,92.796L48.655,92.768L48.724,92.74L48.794,92.713L48.866,92.686L48.938,92.659L49.012,92.632L49.087,92.605L49.241,92.553L49.399,92.501L49.562,92.451L49.729,92.401L49.901,92.353L50.077,92.306L50.257,92.26L50.442,92.215L50.63,92.171L50.823,92.128L51.019,92.087L51.219,92.047L51.423,92.008L51.631,91.97L51.842,91.933L52.057,91.898L52.275,91.865L52.497,91.832L52.722,91.801L52.95,91.771L53.181,91.743L53.415,91.716L53.652,91.691L53.891,91.667L54.134,91.645L54.379,91.624L54.627,91.604L54.877,91.587L55.13,91.57L55.385,91.556L55.642,91.543L55.902,91.532L56.163,91.522L56.427,91.514L56.693,91.508L56.96,91.504L57.229,91.501L57.5,91.5L57.771,91.501ZM57.24,93.168L56.981,93.171L56.724,93.175L56.469,93.181L56.215,93.188L55.964,93.198L55.715,93.209L55.468,93.221L55.224,93.235L54.982,93.25L54.743,93.267L54.506,93.286L54.272,93.306L54.04,93.327L53.812,93.35L53.586,93.374L53.364,93.4L53.145,93.426L52.929,93.454L52.716,93.484L52.508,93.514L52.302,93.546L52.101,93.579L51.903,93.613L51.709,93.648L51.519,93.685L51.334,93.722L51.152,93.76L50.975,93.799L50.803,93.84L50.635,93.88L50.472,93.922L50.314,93.964L50.162,94.007L50.014,94.051L49.872,94.095L49.735,94.14L49.601,94.185L49.54,94.207L49.479,94.229L49.423,94.25L49.479,94.271L49.54,94.293L49.601,94.315L49.735,94.36L49.872,94.405L50.014,94.449L50.162,94.493L50.314,94.536L50.472,94.578L50.635,94.62L50.803,94.66L50.975,94.701L51.152,94.74L51.334,94.778L51.519,94.815L51.709,94.852L51.903,94.887L52.101,94.921L52.302,94.954L52.508,94.986L52.716,95.016L52.929,95.046L53.145,95.074L53.364,95.101L53.586,95.126L53.812,95.15L54.04,95.173L54.272,95.194L54.506,95.214L54.743,95.233L54.982,95.25L55.224,95.265L55.468,95.279L55.715,95.291L55.964,95.302L56.215,95.312L56.469,95.319L56.724,95.325L56.981,95.329L57.24,95.332L57.5,95.333L57.76,95.332L58.019,95.329L58.276,95.325L58.531,95.319L58.785,95.312L59.036,95.302L59.285,95.291L59.532,95.279L59.776,95.265L60.018,95.25L60.257,95.233L60.494,95.214L60.728,95.194L60.96,95.173L61.188,95.15L61.414,95.126L61.636,95.101L61.855,95.074L62.071,95.046L62.284,95.016L62.492,94.986L62.698,94.954L62.899,94.921L63.097,94.887L63.291,94.852L63.481,94.815L63.666,94.778L63.848,94.74L64.025,94.701L64.197,94.66L64.365,94.62L64.528,94.578L64.686,94.536L64.838,94.493L64.986,94.449L65.128,94.405L65.265,94.36L65.399,94.315L65.46,94.293L65.521,94.271L65.577,94.25L65.521,94.229L65.46,94.207L65.399,94.185L65.265,94.14L65.128,94.095L64.986,94.051L64.838,94.007L64.686,93.964L64.528,93.922L64.365,93.88L64.197,93.84L64.025,93.799L63.848,93.76L63.666,93.722L63.481,93.685L63.291,93.648L63.097,93.613L62.899,93.579L62.698,93.546L62.492,93.514L62.284,93.484L62.071,93.454L61.855,93.426L61.636,93.4L61.414,93.374L61.188,93.35L60.96,93.327L60.728,93.306L60.494,93.286L60.257,93.267L60.018,93.25L59.776,93.235L59.532,93.221L59.285,93.209L59.036,93.198L58.785,93.188L58.531,93.181L58.276,93.175L58.019,93.171L57.76,93.168L57.5,93.167L57.24,93.168Z" style="fill:rgb(217,217,217);"/>
            </g>
        </g>
    </g>
</svg>
