<?xml version="1.0" encoding="UTF-8" standalone="no"?>
<!DOCTYPE svg PUBLIC "-//W3C//DTD SVG 1.1//EN" "http://www.w3.org/Graphics/SVG/1.1/DTD/svg11.dtd">
<svg width="100%" height="100%" viewBox="0 0 40 80" version="1.1" xmlns="http://www.w3.org/2000/svg" xmlns:xlink="http://www.w3.org/1999/xlink" xml:space="preserve" xmlns:serif="http://www.serif.com/" style="fill-rule:evenodd;clip-rule:evenodd;stroke-linejoin:bevel;stroke-miterlimit:1.5;">
    <g transform="matrix(1,0,0,1,-84,-51.5)">
        <g id="Artboard6" transform="matrix(0.5,0,0,1.02564,84,0.217949)">
            <rect x="0" y="50" width="80" height="78" style="fill:none;"/>
            <g transform="matrix(2.13333,0,0,0.975,-176.533,-3.66848)">
                <path d="M101.693,119.001L101.886,119.004L102.077,119.009L102.266,119.016L102.455,119.024L102.642,119.035L102.827,119.047L103.011,119.061L103.193,119.077L103.373,119.095L103.552,119.114L103.729,119.135L103.904,119.158L104.078,119.182L104.249,119.208L104.418,119.236L104.585,119.265L104.75,119.296L104.913,119.328L105.074,119.362L105.232,119.398L105.388,119.435L105.541,119.473L105.692,119.513L105.84,119.554L105.986,119.596L106.129,119.64L106.27,119.685L106.407,119.732L106.542,119.78L106.673,119.829L106.802,119.879L106.928,119.931L107.051,119.983L107.17,120.037L107.286,120.092L107.399,120.148L107.509,120.206L107.616,120.264L107.718,120.323L107.818,120.384L107.914,120.445L108.006,120.507L108.094,120.571L108.137,120.603L108.179,120.635L108.22,120.667L108.26,120.7L108.299,120.733L108.337,120.766L108.374,120.799L108.41,120.833L108.445,120.866L108.479,120.9L108.513,120.935L108.545,120.969L108.576,121.003L108.606,121.038L108.635,121.073L108.663,121.108L108.689,121.144L108.715,121.179L108.74,121.215L108.764,121.251L108.786,121.287L108.808,121.323L108.828,121.359L108.848,121.396L108.866,121.432L108.883,121.469L108.899,121.506L108.914,121.543L108.927,121.581L108.94,121.618L108.951,121.656L108.961,121.693L108.97,121.731L108.978,121.769L108.985,121.807L108.99,121.846L108.994,121.884L108.998,121.923L108.999,121.961L109,122L108.999,122.039L108.998,122.077L108.994,122.116L108.99,122.154L108.985,122.193L108.978,122.231L108.97,122.269L108.961,122.307L108.951,122.344L108.94,122.382L108.927,122.419L108.914,122.457L108.899,122.494L108.883,122.531L108.866,122.568L108.848,122.604L108.828,122.641L108.808,122.677L108.786,122.713L108.764,122.749L108.74,122.785L108.715,122.821L108.689,122.856L108.663,122.892L108.635,122.927L108.606,122.962L108.576,122.997L108.545,123.031L108.513,123.065L108.479,123.1L108.445,123.134L108.41,123.167L108.374,123.201L108.337,123.234L108.299,123.267L108.26,123.3L108.22,123.333L108.179,123.365L108.137,123.397L108.094,123.429L108.006,123.493L107.914,123.555L107.818,123.616L107.718,123.677L107.616,123.736L107.509,123.794L107.399,123.852L107.286,123.908L107.17,123.963L107.051,124.017L106.928,124.069L106.802,124.121L106.673,124.171L106.542,124.22L106.407,124.268L106.27,124.315L106.129,124.36L105.986,124.404L105.84,124.446L105.692,124.487L105.541,124.527L105.388,124.565L105.232,124.602L105.074,124.638L104.913,124.672L104.75,124.704L104.585,124.735L104.418,124.764L104.249,124.792L104.078,124.818L103.904,124.842L103.729,124.865L103.552,124.886L103.373,124.905L103.193,124.923L103.011,124.939L102.827,124.953L102.642,124.965L102.455,124.976L102.266,124.984L102.077,124.991L101.886,124.996L101.693,124.999L101.5,125L101.307,124.999L101.114,124.996L100.923,124.991L100.734,124.984L100.545,124.976L100.358,124.965L100.173,124.953L99.989,124.939L99.807,124.923L99.627,124.905L99.448,124.886L99.271,124.865L99.096,124.842L98.922,124.818L98.751,124.792L98.582,124.764L98.415,124.735L98.25,124.704L98.087,124.672L97.926,124.638L97.768,124.602L97.612,124.565L97.459,124.527L97.308,124.487L97.16,124.446L97.014,124.404L96.871,124.36L96.73,124.315L96.593,124.268L96.458,124.22L96.327,124.171L96.198,124.121L96.072,124.069L95.949,124.017L95.83,123.963L95.714,123.908L95.601,123.852L95.491,123.794L95.384,123.736L95.282,123.677L95.182,123.616L95.086,123.555L94.994,123.493L94.906,123.429L94.863,123.397L94.821,123.365L94.78,123.333L94.74,123.3L94.701,123.267L94.663,123.234L94.626,123.201L94.59,123.167L94.555,123.134L94.521,123.1L94.487,123.065L94.455,123.031L94.424,122.997L94.394,122.962L94.365,122.927L94.337,122.892L94.311,122.856L94.285,122.821L94.26,122.785L94.236,122.749L94.214,122.713L94.192,122.677L94.172,122.641L94.152,122.604L94.134,122.568L94.117,122.531L94.101,122.494L94.086,122.457L94.073,122.419L94.06,122.382L94.049,122.344L94.039,122.307L94.03,122.269L94.022,122.231L94.015,122.193L94.01,122.154L94.006,122.116L94.002,122.077L94.001,122.039L94,122L94.001,121.961L94.002,121.923L94.006,121.884L94.01,121.846L94.015,121.807L94.022,121.769L94.03,121.731L94.039,121.693L94.049,121.656L94.06,121.618L94.073,121.581L94.086,121.543L94.101,121.506L94.117,121.469L94.134,121.432L94.152,121.396L94.172,121.359L94.192,121.323L94.214,121.287L94.236,121.251L94.26,121.215L94.285,121.179L94.311,121.144L94.337,121.108L94.365,121.073L94.394,121.038L94.424,121.003L94.455,120.969L94.487,120.935L94.521,120.9L94.555,120.866L94.59,120.833L94.626,120.799L94.663,120.766L94.701,120.733L94.74,120.7L94.78,120.667L94.821,120.635L94.863,120.603L94.906,120.571L94.994,120.507L95.086,120.445L95.182,120.384L95.282,120.323L95.384,120.264L95.491,120.206L95.601,120.148L95.714,120.092L95.83,120.037L95.949,119.983L96.072,119.931L96.198,119.879L96.327,119.829L96.458,119.78L96.593,119.732L96.73,119.685L96.871,119.64L97.014,119.596L97.16,119.554L97.308,119.513L97.459,119.473L97.612,119.435L97.768,119.398L97.926,119.362L98.087,119.328L98.25,119.296L98.415,119.265L98.582,119.236L98.751,119.208L98.922,119.182L99.096,119.158L99.271,119.135L99.448,119.114L99.627,119.095L99.807,119.077L99.989,119.061L100.173,119.047L100.358,119.035L100.545,119.024L100.734,119.016L100.923,119.009L101.114,119.004L101.307,119.001L101.5,119L101.693,119.001ZM101.32,120.501L101.141,120.504L100.963,120.508L100.787,120.514L100.612,120.522L100.439,120.532L100.267,120.544L100.097,120.557L99.928,120.571L99.762,120.588L99.597,120.605L99.434,120.625L99.273,120.646L99.114,120.668L98.957,120.692L98.802,120.717L98.65,120.744L98.5,120.772L98.352,120.801L98.207,120.832L98.065,120.864L97.925,120.897L97.788,120.931L97.653,120.967L97.522,121.003L97.394,121.041L97.268,121.079L97.146,121.118L97.028,121.159L96.912,121.2L96.8,121.241L96.692,121.284L96.587,121.327L96.486,121.37L96.389,121.414L96.295,121.458L96.206,121.502L96.121,121.546L96.04,121.591L95.964,121.635L95.892,121.678L95.825,121.721L95.762,121.764L95.701,121.808L95.677,121.825L95.651,121.845L95.627,121.865L95.603,121.884L95.581,121.903L95.561,121.921L95.541,121.938L95.522,121.956L95.505,121.972L95.489,121.988L95.478,122L95.489,122.012L95.505,122.028L95.522,122.045L95.541,122.062L95.56,122.079L95.581,122.097L95.603,122.116L95.627,122.135L95.651,122.155L95.677,122.175L95.701,122.192L95.762,122.236L95.825,122.279L95.892,122.322L95.964,122.365L96.04,122.409L96.121,122.454L96.206,122.498L96.295,122.542L96.389,122.586L96.486,122.63L96.587,122.673L96.692,122.716L96.8,122.759L96.912,122.8L97.028,122.841L97.146,122.882L97.268,122.921L97.394,122.959L97.522,122.997L97.653,123.033L97.788,123.069L97.925,123.103L98.065,123.136L98.207,123.168L98.352,123.199L98.5,123.228L98.65,123.256L98.802,123.283L98.957,123.308L99.114,123.332L99.273,123.354L99.434,123.375L99.597,123.395L99.762,123.412L99.929,123.429L100.097,123.443L100.267,123.456L100.439,123.468L100.612,123.478L100.787,123.486L100.963,123.492L101.141,123.496L101.32,123.499L101.5,123.5L101.68,123.499L101.859,123.496L102.037,123.492L102.213,123.486L102.388,123.478L102.561,123.468L102.733,123.456L102.903,123.443L103.071,123.429L103.238,123.412L103.403,123.395L103.566,123.375L103.727,123.354L103.886,123.332L104.043,123.308L104.198,123.283L104.35,123.256L104.5,123.228L104.648,123.199L104.793,123.168L104.935,123.136L105.075,123.103L105.212,123.069L105.347,123.033L105.478,122.997L105.606,122.959L105.732,122.921L105.854,122.882L105.972,122.841L106.088,122.8L106.2,122.759L106.308,122.716L106.413,122.673L106.514,122.63L106.611,122.586L106.705,122.542L106.794,122.498L106.879,122.454L106.96,122.409L107.036,122.365L107.108,122.322L107.175,122.279L107.238,122.236L107.299,122.192L107.323,122.175L107.348,122.155L107.373,122.135L107.397,122.116L107.419,122.097L107.44,122.079L107.459,122.062L107.478,122.045L107.495,122.028L107.511,122.012L107.522,122L107.511,121.988L107.495,121.972L107.478,121.956L107.459,121.938L107.439,121.921L107.419,121.903L107.397,121.884L107.373,121.865L107.348,121.845L107.323,121.825L107.299,121.808L107.238,121.764L107.175,121.721L107.108,121.678L107.036,121.635L106.96,121.591L106.879,121.546L106.794,121.502L106.705,121.458L106.611,121.414L106.514,121.37L106.413,121.327L106.308,121.284L106.2,121.241L106.088,121.2L105.972,121.159L105.854,121.118L105.732,121.079L105.606,121.041L105.478,121.003L105.347,120.967L105.212,120.931L105.075,120.897L104.935,120.864L104.793,120.832L104.648,120.801L104.5,120.772L104.35,120.744L104.198,120.717L104.043,120.692L103.886,120.668L103.727,120.646L103.566,120.625L103.403,120.605L103.238,120.588L103.072,120.571L102.903,120.557L102.733,120.544L102.561,120.532L102.388,120.522L102.213,120.514L102.037,120.508L101.859,120.504L101.68,120.501L101.5,120.5L101.32,120.501Z" style="fill:rgb(17,39,45);"/>
            </g>
            <g transform="matrix(3.06667,0,0,0.975,-271.267,-31.456)">
                <path d="M101.693,119.001L101.886,119.004L102.077,119.009L102.266,119.016L102.455,119.024L102.642,119.035L102.827,119.047L103.011,119.061L103.193,119.077L103.373,119.095L103.552,119.114L103.729,119.135L103.904,119.158L104.078,119.182L104.249,119.208L104.418,119.236L104.585,119.265L104.75,119.296L104.913,119.328L105.074,119.362L105.232,119.398L105.388,119.435L105.541,119.473L105.692,119.513L105.84,119.554L105.986,119.596L106.129,119.64L106.27,119.685L106.407,119.732L106.542,119.78L106.673,119.829L106.802,119.879L106.928,119.931L107.051,119.983L107.17,120.037L107.286,120.092L107.399,120.148L107.509,120.206L107.616,120.264L107.718,120.323L107.818,120.384L107.866,120.414L107.914,120.445L107.96,120.476L108.006,120.507L108.05,120.539L108.094,120.571L108.137,120.603L108.179,120.635L108.22,120.667L108.26,120.7L108.299,120.733L108.337,120.766L108.374,120.799L108.41,120.833L108.445,120.866L108.479,120.9L108.513,120.935L108.545,120.969L108.576,121.003L108.606,121.038L108.635,121.073L108.663,121.108L108.689,121.144L108.715,121.179L108.74,121.215L108.764,121.251L108.786,121.287L108.808,121.323L108.828,121.359L108.848,121.396L108.866,121.432L108.883,121.469L108.899,121.506L108.914,121.543L108.927,121.581L108.94,121.618L108.951,121.656L108.961,121.693L108.97,121.731L108.978,121.769L108.985,121.807L108.99,121.846L108.994,121.884L108.998,121.923L108.999,121.961L109,122L108.999,122.039L108.998,122.077L108.994,122.116L108.99,122.154L108.985,122.193L108.978,122.231L108.97,122.269L108.961,122.307L108.951,122.344L108.94,122.382L108.927,122.419L108.914,122.457L108.899,122.494L108.883,122.531L108.866,122.568L108.848,122.604L108.828,122.641L108.808,122.677L108.786,122.713L108.764,122.749L108.74,122.785L108.715,122.821L108.689,122.856L108.663,122.892L108.635,122.927L108.606,122.962L108.576,122.997L108.545,123.031L108.513,123.065L108.479,123.1L108.445,123.134L108.41,123.167L108.374,123.201L108.337,123.234L108.299,123.267L108.26,123.3L108.22,123.333L108.179,123.365L108.137,123.397L108.094,123.429L108.05,123.461L108.006,123.493L107.96,123.524L107.914,123.555L107.866,123.586L107.818,123.616L107.718,123.677L107.616,123.736L107.509,123.794L107.399,123.852L107.286,123.908L107.17,123.963L107.051,124.017L106.928,124.069L106.802,124.121L106.673,124.171L106.542,124.22L106.407,124.268L106.27,124.315L106.129,124.36L105.986,124.404L105.84,124.446L105.692,124.487L105.541,124.527L105.388,124.565L105.232,124.602L105.074,124.638L104.913,124.672L104.75,124.704L104.585,124.735L104.418,124.764L104.249,124.792L104.078,124.818L103.904,124.842L103.729,124.865L103.552,124.886L103.373,124.905L103.193,124.923L103.011,124.939L102.827,124.953L102.642,124.965L102.455,124.976L102.266,124.984L102.077,124.991L101.886,124.996L101.693,124.999L101.5,125L101.307,124.999L101.114,124.996L100.923,124.991L100.734,124.984L100.545,124.976L100.358,124.965L100.173,124.953L99.989,124.939L99.807,124.923L99.627,124.905L99.448,124.886L99.271,124.865L99.096,124.842L98.922,124.818L98.751,124.792L98.582,124.764L98.415,124.735L98.25,124.704L98.087,124.672L97.926,124.638L97.768,124.602L97.612,124.565L97.459,124.527L97.308,124.487L97.16,124.446L97.014,124.404L96.871,124.36L96.73,124.315L96.593,124.268L96.458,124.22L96.327,124.171L96.198,124.121L96.072,124.069L95.949,124.017L95.83,123.963L95.714,123.908L95.601,123.852L95.491,123.794L95.384,123.736L95.282,123.677L95.182,123.616L95.134,123.586L95.086,123.555L95.04,123.524L94.994,123.493L94.95,123.461L94.906,123.429L94.863,123.397L94.821,123.365L94.78,123.333L94.74,123.3L94.701,123.267L94.663,123.234L94.626,123.201L94.59,123.167L94.555,123.134L94.521,123.1L94.487,123.065L94.455,123.031L94.424,122.997L94.394,122.962L94.365,122.927L94.337,122.892L94.311,122.856L94.285,122.821L94.26,122.785L94.236,122.749L94.214,122.713L94.192,122.677L94.172,122.641L94.152,122.604L94.134,122.568L94.117,122.531L94.101,122.494L94.086,122.457L94.073,122.419L94.06,122.382L94.049,122.344L94.039,122.307L94.03,122.269L94.022,122.231L94.015,122.193L94.01,122.154L94.006,122.116L94.002,122.077L94.001,122.039L94,122L94.001,121.961L94.002,121.923L94.006,121.884L94.01,121.846L94.015,121.807L94.022,121.769L94.03,121.731L94.039,121.693L94.049,121.656L94.06,121.618L94.073,121.581L94.086,121.543L94.101,121.506L94.117,121.469L94.134,121.432L94.152,121.396L94.172,121.359L94.192,121.323L94.214,121.287L94.236,121.251L94.26,121.215L94.285,121.179L94.311,121.144L94.337,121.108L94.365,121.073L94.394,121.038L94.424,121.003L94.455,120.969L94.487,120.935L94.521,120.9L94.555,120.866L94.59,120.833L94.626,120.799L94.663,120.766L94.701,120.733L94.74,120.7L94.78,120.667L94.821,120.635L94.863,120.603L94.906,120.571L94.95,120.539L94.994,120.507L95.04,120.476L95.086,120.445L95.134,120.414L95.182,120.384L95.282,120.323L95.384,120.264L95.491,120.206L95.601,120.148L95.714,120.092L95.83,120.037L95.949,119.983L96.072,119.931L96.198,119.879L96.327,119.829L96.458,119.78L96.593,119.732L96.73,119.685L96.871,119.64L97.014,119.596L97.16,119.554L97.308,119.513L97.459,119.473L97.612,119.435L97.768,119.398L97.926,119.362L98.087,119.328L98.25,119.296L98.415,119.265L98.582,119.236L98.751,119.208L98.922,119.182L99.096,119.158L99.271,119.135L99.448,119.114L99.627,119.095L99.807,119.077L99.989,119.061L100.173,119.047L100.358,119.035L100.545,119.024L100.734,119.016L100.923,119.009L101.114,119.004L101.307,119.001L101.5,119L101.693,119.001ZM101.313,120.501L101.127,120.504L100.943,120.508L100.76,120.515L100.578,120.523L100.397,120.533L100.219,120.545L100.041,120.559L99.866,120.574L99.692,120.591L99.52,120.61L99.35,120.63L99.182,120.652L99.015,120.675L98.851,120.7L98.689,120.727L98.529,120.755L98.372,120.784L98.216,120.815L98.064,120.847L97.913,120.881L97.765,120.916L97.62,120.952L97.478,120.99L97.338,121.029L97.201,121.069L97.067,121.11L96.936,121.152L96.809,121.195L96.684,121.239L96.563,121.284L96.445,121.331L96.33,121.377L96.219,121.425L96.112,121.473L96.008,121.522L95.909,121.572L95.813,121.622L95.721,121.672L95.634,121.723L95.549,121.774L95.511,121.798L95.472,121.823L95.435,121.848L95.398,121.873L95.363,121.898L95.329,121.923L95.296,121.947L95.265,121.972L95.235,121.995L95.229,122L95.235,122.005L95.265,122.028L95.296,122.053L95.329,122.077L95.363,122.102L95.398,122.127L95.435,122.152L95.472,122.177L95.511,122.202L95.549,122.226L95.634,122.278L95.721,122.328L95.813,122.378L95.909,122.428L96.008,122.478L96.112,122.527L96.219,122.575L96.33,122.623L96.445,122.669L96.563,122.716L96.684,122.761L96.809,122.805L96.936,122.848L97.067,122.89L97.201,122.931L97.338,122.971L97.478,123.01L97.62,123.048L97.765,123.084L97.913,123.119L98.064,123.153L98.216,123.185L98.372,123.216L98.529,123.245L98.689,123.273L98.851,123.3L99.015,123.325L99.182,123.348L99.35,123.37L99.52,123.39L99.692,123.409L99.866,123.426L100.041,123.441L100.219,123.455L100.397,123.467L100.578,123.477L100.76,123.485L100.943,123.492L101.127,123.496L101.313,123.499L101.5,123.5L101.687,123.499L101.873,123.496L102.057,123.492L102.24,123.485L102.422,123.477L102.603,123.467L102.781,123.455L102.959,123.441L103.134,123.426L103.308,123.409L103.48,123.39L103.65,123.37L103.818,123.348L103.985,123.325L104.149,123.3L104.311,123.273L104.471,123.245L104.628,123.216L104.784,123.185L104.936,123.153L105.087,123.119L105.235,123.084L105.38,123.048L105.522,123.01L105.662,122.971L105.799,122.931L105.933,122.89L106.064,122.848L106.191,122.805L106.316,122.761L106.437,122.716L106.555,122.669L106.67,122.623L106.781,122.575L106.888,122.527L106.992,122.478L107.091,122.428L107.187,122.378L107.279,122.328L107.366,122.278L107.451,122.226L107.489,122.202L107.528,122.177L107.565,122.152L107.602,122.127L107.637,122.102L107.671,122.077L107.704,122.053L107.735,122.029L107.765,122.004L107.771,122L107.765,121.995L107.735,121.971L107.704,121.947L107.671,121.923L107.637,121.898L107.602,121.873L107.565,121.848L107.528,121.823L107.489,121.798L107.451,121.774L107.366,121.723L107.279,121.672L107.187,121.622L107.091,121.572L106.992,121.522L106.888,121.473L106.781,121.425L106.67,121.377L106.555,121.331L106.437,121.284L106.316,121.239L106.191,121.195L106.064,121.152L105.933,121.11L105.799,121.069L105.662,121.029L105.522,120.99L105.38,120.952L105.235,120.916L105.087,120.881L104.936,120.847L104.784,120.815L104.628,120.784L104.471,120.755L104.311,120.727L104.149,120.7L103.985,120.675L103.818,120.652L103.65,120.63L103.48,120.61L103.308,120.591L103.134,120.574L102.959,120.559L102.781,120.545L102.603,120.533L102.422,120.523L102.24,120.515L102.057,120.508L101.873,120.504L101.687,120.501L101.5,120.5L101.313,120.501Z" style="fill:rgb(17,39,45);"/>
            </g>
            <g transform="matrix(2,0,0,0.975,-213,-6.59348)">
                <path d="M117.72,109.627C120.461,121.143 132.86,120.228 135.186,110.186" style="fill:none;stroke:rgb(17,39,45);stroke-width:1.5px;"/>
            </g>
            <g transform="matrix(2,0,0,0.975,-213,-6.59348)">
                <path d="M126.822,88.501L127.143,88.504L127.461,88.509L127.777,88.516L128.091,88.524L128.403,88.535L128.712,88.547L129.018,88.561L129.322,88.577L129.622,88.595L129.92,88.614L130.215,88.635L130.507,88.658L130.796,88.682L131.082,88.708L131.364,88.736L131.642,88.765L131.917,88.796L132.189,88.828L132.456,88.862L132.72,88.898L132.98,88.935L133.235,88.973L133.487,89.013L133.734,89.054L133.977,89.096L134.215,89.14L134.449,89.185L134.678,89.232L134.903,89.28L135.122,89.329L135.337,89.379L135.547,89.431L135.751,89.483L135.95,89.537L136.144,89.592L136.332,89.648L136.515,89.706L136.693,89.764L136.864,89.823L137.03,89.884L137.11,89.914L137.189,89.945L137.267,89.976L137.343,90.007L137.417,90.039L137.49,90.071L137.562,90.103L137.632,90.135L137.7,90.167L137.767,90.2L137.832,90.233L137.895,90.266L137.957,90.299L138.017,90.333L138.076,90.366L138.132,90.4L138.188,90.435L138.241,90.469L138.293,90.503L138.343,90.538L138.391,90.573L138.438,90.608L138.482,90.644L138.525,90.679L138.567,90.715L138.606,90.751L138.644,90.787L138.68,90.823L138.714,90.859L138.746,90.896L138.776,90.932L138.805,90.969L138.831,91.006L138.856,91.043L138.879,91.081L138.899,91.118L138.918,91.156L138.935,91.193L138.95,91.231L138.964,91.269L138.975,91.307L138.984,91.346L138.991,91.384L138.996,91.423L138.999,91.461L139,91.5L138.999,91.534L138.997,91.568L138.993,91.602L138.987,91.636L138.98,91.67L138.972,91.703L138.961,91.737L138.95,91.77L138.823,92.462L138.734,92.953L138.629,93.534L138.511,94.2L138.379,94.945L138.235,95.764L138.082,96.652L137.918,97.604L137.747,98.615L137.57,99.678L137.386,100.79L137.199,101.944L137.104,102.536L137.009,103.136L136.913,103.744L136.817,104.36L136.72,104.982L136.624,105.611L136.528,106.244L136.433,106.883L136.338,107.526L136.243,108.172L136.149,108.821L136.057,109.472L135.965,110.125L135.875,110.778L135.786,111.432L135.699,112.085L135.614,112.737L135.531,113.387L135.449,114.034L135.37,114.679L135.294,115.32L135.219,115.956L135.148,116.587L135.079,117.213L135.014,117.832L134.952,118.444L134.893,119.048L134.837,119.644L134.785,120.231L134.761,120.521L134.737,120.809L134.714,121.094L134.693,121.376L134.672,121.655L134.653,121.932L134.635,122.205L134.617,122.476L134.601,122.744L134.586,123.008L134.572,123.269L134.559,123.527L134.548,123.782L134.537,124.033L134.528,124.28L134.52,124.524L134.514,124.764L134.508,125L134.5,125L134.499,125.039L134.497,125.077L134.494,125.116L134.49,125.154L134.484,125.193L134.477,125.231L134.468,125.269L134.459,125.307L134.448,125.344L134.436,125.382L134.422,125.419L134.408,125.457L134.392,125.494L134.375,125.531L134.357,125.568L134.337,125.604L134.317,125.641L134.295,125.677L134.272,125.713L134.248,125.749L134.223,125.785L134.196,125.821L134.169,125.856L134.14,125.892L134.11,125.927L134.079,125.962L134.047,125.997L134.014,126.031L133.98,126.065L133.945,126.1L133.908,126.134L133.871,126.167L133.832,126.201L133.793,126.234L133.752,126.267L133.711,126.3L133.668,126.333L133.624,126.365L133.58,126.398L133.534,126.429L133.439,126.493L133.341,126.555L133.239,126.616L133.133,126.677L133.023,126.736L132.91,126.794L132.793,126.852L132.672,126.908L132.548,126.963L132.421,127.017L132.29,127.069L132.156,127.121L132.018,127.171L131.878,127.22L131.734,127.268L131.587,127.315L131.438,127.36L131.285,127.404L131.13,127.446L130.972,127.487L130.811,127.527L130.647,127.565L130.481,127.602L130.312,127.638L130.141,127.672L129.967,127.704L129.791,127.735L129.613,127.764L129.432,127.792L129.249,127.818L129.065,127.842L128.878,127.865L128.689,127.886L128.498,127.905L128.306,127.923L128.111,127.939L127.915,127.953L127.718,127.965L127.518,127.976L127.317,127.984L127.115,127.991L126.911,127.996L126.706,127.999L126.5,128L126.294,127.999L126.089,127.996L125.885,127.991L125.683,127.984L125.482,127.976L125.282,127.965L125.085,127.953L124.889,127.939L124.694,127.923L124.502,127.905L124.311,127.886L124.122,127.865L123.935,127.842L123.751,127.818L123.568,127.792L123.387,127.764L123.209,127.735L123.033,127.704L122.859,127.672L122.688,127.638L122.519,127.602L122.353,127.565L122.189,127.527L122.028,127.487L121.87,127.446L121.715,127.404L121.562,127.36L121.412,127.315L121.266,127.268L121.122,127.22L120.982,127.171L120.844,127.121L120.71,127.069L120.579,127.017L120.452,126.963L120.328,126.908L120.207,126.852L120.09,126.794L119.977,126.736L119.867,126.677L119.761,126.616L119.659,126.555L119.561,126.493L119.466,126.429L119.42,126.397L119.376,126.365L119.332,126.333L119.289,126.3L119.248,126.267L119.207,126.234L119.168,126.201L119.129,126.167L119.092,126.134L119.055,126.1L119.02,126.065L118.986,126.031L118.953,125.997L118.921,125.962L118.89,125.927L118.86,125.892L118.831,125.856L118.804,125.821L118.777,125.785L118.752,125.749L118.728,125.713L118.705,125.677L118.683,125.641L118.663,125.604L118.643,125.568L118.625,125.531L118.608,125.494L118.592,125.457L118.578,125.419L118.564,125.382L118.552,125.344L118.541,125.307L118.532,125.269L118.523,125.231L118.516,125.193L118.51,125.154L118.506,125.116L118.503,125.077L118.501,125.039L118.5,125L118.492,125L118.486,124.764L118.48,124.524L118.472,124.28L118.463,124.033L118.452,123.782L118.441,123.527L118.428,123.269L118.414,123.008L118.399,122.744L118.383,122.476L118.365,122.205L118.347,121.932L118.328,121.655L118.307,121.376L118.286,121.094L118.263,120.809L118.239,120.521L118.215,120.231L118.163,119.644L118.107,119.048L118.048,118.444L117.986,117.832L117.921,117.213L117.852,116.587L117.781,115.956L117.706,115.32L117.63,114.679L117.551,114.034L117.469,113.387L117.386,112.737L117.301,112.085L117.214,111.432L117.125,110.778L117.035,110.125L116.943,109.472L116.851,108.821L116.757,108.172L116.662,107.526L116.567,106.883L116.472,106.244L116.376,105.611L116.28,104.982L116.183,104.36L116.087,103.744L115.991,103.136L115.896,102.536L115.801,101.944L115.614,100.79L115.43,99.678L115.253,98.615L115.082,97.604L114.918,96.652L114.765,95.764L114.621,94.945L114.489,94.2L114.371,93.534L114.266,92.953L114.177,92.462L114.05,91.77L114.039,91.737L114.028,91.703L114.02,91.67L114.013,91.636L114.007,91.602L114.003,91.568L114.001,91.534L114,91.5L114.001,91.461L114.004,91.423L114.009,91.384L114.016,91.346L114.025,91.307L114.036,91.269L114.05,91.231L114.065,91.193L114.082,91.156L114.101,91.118L114.121,91.081L114.144,91.043L114.169,91.006L114.195,90.969L114.224,90.932L114.254,90.896L114.286,90.859L114.32,90.823L114.356,90.787L114.394,90.751L114.433,90.715L114.475,90.679L114.518,90.644L114.562,90.608L114.609,90.573L114.657,90.538L114.707,90.503L114.759,90.469L114.812,90.435L114.868,90.4L114.924,90.366L114.983,90.333L115.043,90.299L115.105,90.266L115.168,90.233L115.233,90.2L115.3,90.167L115.368,90.135L115.438,90.103L115.51,90.071L115.583,90.039L115.657,90.007L115.733,89.976L115.811,89.945L115.89,89.914L115.97,89.884L116.136,89.823L116.307,89.764L116.485,89.706L116.668,89.648L116.856,89.592L117.05,89.537L117.249,89.483L117.453,89.431L117.663,89.379L117.878,89.329L118.097,89.28L118.322,89.232L118.551,89.185L118.785,89.14L119.023,89.096L119.266,89.054L119.513,89.013L119.765,88.973L120.02,88.935L120.28,88.898L120.544,88.862L120.811,88.828L121.083,88.796L121.358,88.765L121.636,88.736L121.918,88.708L122.204,88.682L122.493,88.658L122.785,88.635L123.08,88.614L123.378,88.595L123.678,88.577L123.982,88.561L124.288,88.547L124.597,88.535L124.909,88.524L125.223,88.516L125.539,88.509L125.857,88.504L126.178,88.501L126.5,88.5L126.822,88.501ZM126.187,90.001L125.875,90.004L125.566,90.009L125.259,90.015L124.955,90.023L124.652,90.034L124.353,90.046L124.056,90.059L123.762,90.075L123.47,90.092L123.182,90.11L122.896,90.131L122.614,90.153L122.335,90.176L122.06,90.202L121.788,90.228L121.52,90.256L121.255,90.286L120.995,90.317L120.738,90.35L120.485,90.384L120.237,90.419L119.993,90.455L119.753,90.493L119.518,90.532L119.288,90.573L119.063,90.614L118.842,90.657L118.627,90.701L118.417,90.745L118.212,90.791L118.013,90.838L117.82,90.885L117.632,90.934L117.45,90.983L117.275,91.033L117.106,91.083L116.943,91.134L116.787,91.185L116.638,91.237L116.493,91.29L116.428,91.314L116.362,91.34L116.297,91.366L116.235,91.392L116.174,91.417L116.116,91.443L116.059,91.468L116.005,91.493L115.952,91.518L115.902,91.543L115.854,91.567L115.808,91.591L115.764,91.614L115.723,91.638L115.684,91.66L115.647,91.682L115.613,91.703L115.581,91.724L115.568,91.732L115.653,92.193L115.742,92.686L115.847,93.269L115.966,93.937L116.098,94.685L116.242,95.507L116.397,96.398L116.56,97.353L116.732,98.366L116.91,99.433L117.094,100.548L117.282,101.705L117.377,102.299L117.473,102.901L117.569,103.512L117.666,104.129L117.762,104.754L117.859,105.385L117.955,106.021L118.051,106.662L118.147,107.307L118.241,107.956L118.335,108.608L118.428,109.262L118.52,109.918L118.611,110.575L118.7,111.231L118.788,111.888L118.874,112.544L118.957,113.198L119.039,113.85L119.119,114.498L119.196,115.144L119.271,115.785L119.343,116.421L119.412,117.052L119.478,117.677L119.541,118.295L119.601,118.906L119.657,119.509L119.709,120.102L119.734,120.397L119.758,120.688L119.781,120.977L119.803,121.264L119.824,121.548L119.844,121.829L119.862,122.107L119.88,122.383L119.896,122.656L119.912,122.925L119.926,123.192L119.939,123.456L119.951,123.717L119.961,123.974L119.971,124.228L119.979,124.479L119.986,124.726L119.99,124.902L119.999,124.915L120.006,124.924L120.014,124.934L120.023,124.945L120.034,124.956L120.046,124.969L120.059,124.983L120.073,124.997L120.089,125.012L120.106,125.028L120.124,125.045L120.144,125.062L120.165,125.079L120.187,125.097L120.21,125.116L120.235,125.135L120.262,125.155L120.289,125.175L120.314,125.192L120.38,125.236L120.447,125.279L120.518,125.322L120.595,125.365L120.676,125.409L120.763,125.454L120.853,125.498L120.948,125.542L121.048,125.586L121.151,125.63L121.259,125.673L121.371,125.716L121.487,125.759L121.606,125.8L121.729,125.841L121.856,125.882L121.986,125.921L122.12,125.959L122.257,125.997L122.397,126.033L122.54,126.069L122.686,126.103L122.836,126.136L122.988,126.168L123.142,126.199L123.3,126.228L123.46,126.256L123.622,126.283L123.787,126.308L123.955,126.332L124.124,126.354L124.296,126.375L124.47,126.395L124.646,126.412L124.824,126.429L125.003,126.443L125.185,126.456L125.368,126.468L125.553,126.478L125.74,126.486L125.928,126.492L126.117,126.496L126.308,126.499L126.5,126.5L126.692,126.499L126.883,126.496L127.072,126.492L127.26,126.486L127.447,126.478L127.632,126.468L127.815,126.456L127.997,126.443L128.176,126.429L128.354,126.412L128.53,126.395L128.704,126.375L128.876,126.354L129.045,126.332L129.213,126.308L129.377,126.283L129.54,126.256L129.7,126.228L129.858,126.199L130.012,126.168L130.164,126.136L130.314,126.103L130.46,126.069L130.603,126.033L130.743,125.997L130.88,125.959L131.014,125.921L131.144,125.882L131.271,125.841L131.394,125.8L131.513,125.759L131.629,125.716L131.741,125.673L131.848,125.63L131.952,125.586L132.052,125.542L132.147,125.498L132.237,125.454L132.323,125.409L132.405,125.365L132.482,125.322L132.553,125.279L132.62,125.236L132.686,125.192L132.711,125.175L132.738,125.155L132.765,125.135L132.79,125.116L132.813,125.097L132.835,125.079L132.856,125.062L132.876,125.045L132.894,125.028L132.911,125.012L132.927,124.997L132.941,124.983L132.954,124.969L132.966,124.956L132.977,124.945L132.986,124.934L132.994,124.924L133.001,124.915L133.007,124.907L133.01,124.902L133.014,124.726L133.021,124.479L133.029,124.228L133.039,123.974L133.049,123.717L133.061,123.456L133.074,123.192L133.088,122.925L133.104,122.656L133.12,122.383L133.138,122.107L133.157,121.829L133.176,121.548L133.197,121.264L133.219,120.977L133.242,120.688L133.266,120.397L133.291,120.102L133.343,119.509L133.399,118.906L133.459,118.295L133.522,117.677L133.588,117.052L133.657,116.421L133.729,115.785L133.804,115.144L133.881,114.498L133.961,113.85L134.043,113.198L134.126,112.544L134.212,111.888L134.3,111.231L134.389,110.575L134.48,109.918L134.572,109.262L134.665,108.608L134.759,107.956L134.853,107.307L134.949,106.662L135.045,106.021L135.141,105.385L135.238,104.754L135.334,104.129L135.431,103.512L135.527,102.901L135.623,102.299L135.718,101.705L135.906,100.548L136.09,99.433L136.268,98.366L136.44,97.353L136.603,96.398L136.758,95.507L136.902,94.685L137.034,93.937L137.153,93.269L137.258,92.686L137.347,92.193L137.432,91.732L137.419,91.724L137.387,91.703L137.353,91.682L137.316,91.66L137.277,91.638L137.236,91.615L137.192,91.591L137.146,91.567L137.098,91.543L137.048,91.518L136.995,91.493L136.941,91.468L136.884,91.443L136.826,91.417L136.765,91.392L136.703,91.366L136.638,91.34L136.572,91.314L136.507,91.289L136.362,91.237L136.213,91.185L136.057,91.134L135.894,91.083L135.725,91.033L135.55,90.983L135.368,90.934L135.18,90.885L134.987,90.838L134.788,90.791L134.583,90.745L134.373,90.701L134.158,90.657L133.937,90.614L133.712,90.573L133.482,90.532L133.247,90.493L133.007,90.455L132.763,90.419L132.515,90.384L132.262,90.35L132.005,90.317L131.745,90.286L131.48,90.256L131.212,90.228L130.94,90.202L130.665,90.176L130.386,90.153L130.104,90.131L129.818,90.11L129.53,90.092L129.238,90.075L128.944,90.059L128.647,90.046L128.348,90.034L128.045,90.023L127.741,90.015L127.434,90.009L127.125,90.004L126.813,90.001L126.5,90L126.187,90.001ZM133.009,124.923L133.007,124.932L133.005,124.942L133.003,124.953L133.002,124.964L133.001,124.974L133.031,124.944L133.009,124.966L133.01,124.918L133.009,124.923ZM119.991,124.966L119.959,124.934L119.999,124.974L119.998,124.964L119.997,124.953L119.995,124.942L119.994,124.932L119.991,124.923L119.99,124.918L119.991,124.966ZM137.527,91.3L137.519,91.33L137.517,91.339L137.533,91.28L137.527,91.3ZM115.483,91.339L115.481,91.329L115.473,91.3L115.467,91.28L115.483,91.339Z" style="fill:rgb(44,59,180);"/>
            </g>
            <g transform="matrix(3.33333,0,0,0.975,-298.333,-36.331)">
                <path d="M101.693,119.001L101.886,119.004L102.077,119.009L102.266,119.016L102.455,119.024L102.642,119.035L102.827,119.047L103.011,119.061L103.193,119.077L103.373,119.095L103.552,119.114L103.729,119.135L103.904,119.158L104.078,119.182L104.249,119.208L104.418,119.236L104.585,119.265L104.75,119.296L104.913,119.328L105.074,119.362L105.232,119.398L105.388,119.435L105.541,119.473L105.692,119.513L105.84,119.554L105.986,119.596L106.129,119.64L106.27,119.685L106.407,119.732L106.542,119.78L106.673,119.829L106.802,119.879L106.928,119.931L107.051,119.983L107.17,120.037L107.286,120.092L107.399,120.148L107.509,120.206L107.616,120.264L107.718,120.323L107.818,120.384L107.866,120.414L107.914,120.445L107.96,120.476L108.006,120.507L108.05,120.539L108.094,120.571L108.137,120.603L108.179,120.635L108.22,120.667L108.26,120.7L108.299,120.733L108.337,120.766L108.374,120.799L108.41,120.833L108.445,120.866L108.479,120.9L108.513,120.935L108.545,120.969L108.576,121.003L108.606,121.038L108.635,121.073L108.663,121.108L108.689,121.144L108.715,121.179L108.74,121.215L108.764,121.251L108.786,121.287L108.808,121.323L108.828,121.359L108.848,121.396L108.866,121.432L108.883,121.469L108.899,121.506L108.914,121.543L108.927,121.581L108.94,121.618L108.951,121.656L108.961,121.693L108.97,121.731L108.978,121.769L108.985,121.807L108.99,121.846L108.994,121.884L108.998,121.923L108.999,121.961L109,122L108.999,122.039L108.998,122.077L108.994,122.116L108.99,122.154L108.985,122.193L108.978,122.231L108.97,122.269L108.961,122.307L108.951,122.344L108.94,122.382L108.927,122.419L108.914,122.457L108.899,122.494L108.883,122.531L108.866,122.568L108.848,122.604L108.828,122.641L108.808,122.677L108.786,122.713L108.764,122.749L108.74,122.785L108.715,122.821L108.689,122.856L108.663,122.892L108.635,122.927L108.606,122.962L108.576,122.997L108.545,123.031L108.513,123.065L108.479,123.1L108.445,123.134L108.41,123.167L108.374,123.201L108.337,123.234L108.299,123.267L108.26,123.3L108.22,123.333L108.179,123.365L108.137,123.397L108.094,123.429L108.05,123.461L108.006,123.493L107.96,123.524L107.914,123.555L107.866,123.586L107.818,123.616L107.718,123.677L107.616,123.736L107.509,123.794L107.399,123.852L107.286,123.908L107.17,123.963L107.051,124.017L106.928,124.069L106.802,124.121L106.673,124.171L106.542,124.22L106.407,124.268L106.27,124.315L106.129,124.36L105.986,124.404L105.84,124.446L105.692,124.487L105.541,124.527L105.388,124.565L105.232,124.602L105.074,124.638L104.913,124.672L104.75,124.704L104.585,124.735L104.418,124.764L104.249,124.792L104.078,124.818L103.904,124.842L103.729,124.865L103.552,124.886L103.373,124.905L103.193,124.923L103.011,124.939L102.827,124.953L102.642,124.965L102.455,124.976L102.266,124.984L102.077,124.991L101.886,124.996L101.693,124.999L101.5,125L101.307,124.999L101.114,124.996L100.923,124.991L100.734,124.984L100.545,124.976L100.358,124.965L100.173,124.953L99.989,124.939L99.807,124.923L99.627,124.905L99.448,124.886L99.271,124.865L99.096,124.842L98.922,124.818L98.751,124.792L98.582,124.764L98.415,124.735L98.25,124.704L98.087,124.672L97.926,124.638L97.768,124.602L97.612,124.565L97.459,124.527L97.308,124.487L97.16,124.446L97.014,124.404L96.871,124.36L96.73,124.315L96.593,124.268L96.458,124.22L96.327,124.171L96.198,124.121L96.072,124.069L95.949,124.017L95.83,123.963L95.714,123.908L95.601,123.852L95.491,123.794L95.384,123.736L95.282,123.677L95.182,123.616L95.134,123.586L95.086,123.555L95.04,123.524L94.994,123.493L94.95,123.461L94.906,123.429L94.863,123.397L94.821,123.365L94.78,123.333L94.74,123.3L94.701,123.267L94.663,123.234L94.626,123.201L94.59,123.167L94.555,123.134L94.521,123.1L94.487,123.065L94.455,123.031L94.424,122.997L94.394,122.962L94.365,122.927L94.337,122.892L94.311,122.856L94.285,122.821L94.26,122.785L94.236,122.749L94.214,122.713L94.192,122.677L94.172,122.641L94.152,122.604L94.134,122.568L94.117,122.531L94.101,122.494L94.086,122.457L94.073,122.419L94.06,122.382L94.049,122.344L94.039,122.307L94.03,122.269L94.022,122.231L94.015,122.193L94.01,122.154L94.006,122.116L94.002,122.077L94.001,122.039L94,122L94.001,121.961L94.002,121.923L94.006,121.884L94.01,121.846L94.015,121.807L94.022,121.769L94.03,121.731L94.039,121.693L94.049,121.656L94.06,121.618L94.073,121.581L94.086,121.543L94.101,121.506L94.117,121.469L94.134,121.432L94.152,121.396L94.172,121.359L94.192,121.323L94.214,121.287L94.236,121.251L94.26,121.215L94.285,121.179L94.311,121.144L94.337,121.108L94.365,121.073L94.394,121.038L94.424,121.003L94.455,120.969L94.487,120.935L94.521,120.9L94.555,120.866L94.59,120.833L94.626,120.799L94.663,120.766L94.701,120.733L94.74,120.7L94.78,120.667L94.821,120.635L94.863,120.603L94.906,120.571L94.95,120.539L94.994,120.507L95.04,120.476L95.086,120.445L95.134,120.414L95.182,120.384L95.282,120.323L95.384,120.264L95.491,120.206L95.601,120.148L95.714,120.092L95.83,120.037L95.949,119.983L96.072,119.931L96.198,119.879L96.327,119.829L96.458,119.78L96.593,119.732L96.73,119.685L96.871,119.64L97.014,119.596L97.16,119.554L97.308,119.513L97.459,119.473L97.612,119.435L97.768,119.398L97.926,119.362L98.087,119.328L98.25,119.296L98.415,119.265L98.582,119.236L98.751,119.208L98.922,119.182L99.096,119.158L99.271,119.135L99.448,119.114L99.627,119.095L99.807,119.077L99.989,119.061L100.173,119.047L100.358,119.035L100.545,119.024L100.734,119.016L100.923,119.009L101.114,119.004L101.307,119.001L101.5,119L101.693,119.001ZM101.312,120.501L101.125,120.504L100.94,120.509L100.756,120.515L100.573,120.523L100.391,120.534L100.212,120.546L100.033,120.559L99.857,120.575L99.682,120.592L99.509,120.61L99.338,120.631L99.169,120.653L99.001,120.676L98.836,120.702L98.673,120.728L98.512,120.756L98.353,120.786L98.197,120.817L98.043,120.85L97.891,120.884L97.742,120.919L97.596,120.955L97.452,120.993L97.311,121.032L97.173,121.073L97.038,121.114L96.905,121.157L96.776,121.201L96.65,121.245L96.527,121.291L96.408,121.338L96.292,121.385L96.179,121.434L96.07,121.483L95.965,121.533L95.863,121.583L95.766,121.634L95.672,121.685L95.583,121.737L95.496,121.79L95.457,121.814L95.417,121.84L95.378,121.866L95.341,121.892L95.304,121.917L95.269,121.943L95.235,121.968L95.203,121.993L95.194,122L95.203,122.007L95.235,122.032L95.269,122.057L95.304,122.083L95.341,122.108L95.378,122.134L95.417,122.16L95.457,122.186L95.496,122.211L95.583,122.263L95.672,122.315L95.766,122.366L95.863,122.417L95.965,122.467L96.07,122.517L96.179,122.566L96.292,122.615L96.408,122.662L96.527,122.709L96.65,122.755L96.776,122.799L96.905,122.843L97.038,122.886L97.173,122.927L97.311,122.968L97.452,123.007L97.596,123.045L97.742,123.081L97.891,123.116L98.043,123.15L98.197,123.183L98.353,123.214L98.512,123.244L98.673,123.272L98.836,123.298L99.001,123.324L99.169,123.347L99.338,123.369L99.509,123.39L99.682,123.408L99.857,123.425L100.033,123.441L100.212,123.454L100.391,123.466L100.573,123.477L100.756,123.485L100.94,123.491L101.125,123.496L101.312,123.499L101.5,123.5L101.688,123.499L101.875,123.496L102.06,123.491L102.244,123.485L102.427,123.477L102.609,123.466L102.788,123.454L102.967,123.441L103.143,123.425L103.318,123.408L103.491,123.39L103.662,123.369L103.831,123.347L103.999,123.324L104.164,123.298L104.327,123.272L104.488,123.244L104.647,123.214L104.803,123.183L104.957,123.15L105.109,123.116L105.258,123.081L105.404,123.045L105.548,123.007L105.689,122.968L105.827,122.927L105.962,122.886L106.095,122.843L106.224,122.799L106.35,122.755L106.473,122.709L106.592,122.662L106.708,122.615L106.821,122.566L106.93,122.517L107.035,122.467L107.137,122.417L107.234,122.366L107.328,122.315L107.417,122.263L107.504,122.211L107.543,122.186L107.583,122.16L107.622,122.134L107.659,122.108L107.696,122.083L107.731,122.057L107.765,122.032L107.797,122.007L107.806,122L107.797,121.993L107.765,121.968L107.731,121.943L107.696,121.917L107.659,121.892L107.622,121.866L107.583,121.84L107.543,121.814L107.504,121.79L107.417,121.737L107.328,121.685L107.234,121.634L107.137,121.583L107.035,121.533L106.93,121.483L106.821,121.434L106.708,121.385L106.592,121.338L106.473,121.291L106.35,121.245L106.224,121.201L106.095,121.157L105.962,121.114L105.827,121.073L105.689,121.032L105.548,120.993L105.404,120.955L105.258,120.919L105.109,120.884L104.957,120.85L104.803,120.817L104.647,120.786L104.488,120.756L104.327,120.728L104.164,120.702L103.999,120.676L103.831,120.653L103.662,120.631L103.491,120.61L103.318,120.592L103.143,120.575L102.967,120.559L102.788,120.546L102.609,120.534L102.427,120.523L102.244,120.515L102.06,120.509L101.875,120.504L101.688,120.501L101.5,120.5L101.312,120.501Z" style="fill:rgb(44,59,180);"/>
            </g>
        </g>
    </g>
</svg>
