<?xml version="1.0" encoding="UTF-8" standalone="no"?>
<!DOCTYPE svg PUBLIC "-//W3C//DTD SVG 1.1//EN" "http://www.w3.org/Graphics/SVG/1.1/DTD/svg11.dtd">
<svg width="100%" height="100%" viewBox="0 0 40 80" version="1.1" xmlns="http://www.w3.org/2000/svg" xmlns:xlink="http://www.w3.org/1999/xlink" xml:space="preserve" xmlns:serif="http://www.serif.com/" style="fill-rule:evenodd;clip-rule:evenodd;stroke-linecap:round;stroke-linejoin:round;stroke-miterlimit:1.5;">
    <g transform="matrix(1,0,0,1,-258,-52.3136)">
        <g id="Artboard8" transform="matrix(0.5,0,0,1.02564,258,1.03157)">
            <rect x="0" y="50" width="80" height="78" style="fill:none;"/>
            <g transform="matrix(1.75758,0,0,1.28705,-482.879,-76.8972)">
                <path d="M297.926,118.815L298.349,118.818L298.769,118.823L299.186,118.83L299.6,118.839L300.011,118.85L300.419,118.863L300.824,118.878L301.224,118.894L301.622,118.913L302.015,118.933L302.404,118.955L302.79,118.979L303.171,119.004L303.548,119.031L303.92,119.06L304.288,119.091L304.651,119.123L305.009,119.156L305.362,119.192L305.71,119.229L306.053,119.267L306.391,119.307L306.723,119.348L307.049,119.391L307.37,119.435L307.684,119.481L307.993,119.528L308.145,119.552L308.296,119.577L308.444,119.601L308.592,119.626L308.738,119.652L308.882,119.678L309.024,119.704L309.165,119.73L309.304,119.757L309.442,119.784L309.577,119.811L309.711,119.838L309.844,119.866L309.974,119.895L310.103,119.923L310.23,119.952L310.355,119.981L310.479,120.01L310.6,120.04L310.72,120.07L310.838,120.1L310.954,120.131L311.068,120.161L311.18,120.192L311.291,120.224L311.399,120.255L311.505,120.287L311.61,120.319L311.712,120.352L311.813,120.384L311.911,120.417L312.007,120.45L312.102,120.483L312.194,120.517L312.284,120.551L312.372,120.585L312.458,120.619L312.541,120.653L312.623,120.688L312.702,120.723L312.78,120.758L312.855,120.794L312.928,120.829L312.998,120.865L313.066,120.901L313.132,120.937L313.196,120.974L313.258,121.01L313.317,121.047L313.374,121.084L313.428,121.121L313.48,121.158L313.53,121.196L313.577,121.234L313.622,121.271L313.665,121.309L313.705,121.348L313.742,121.386L313.777,121.425L313.81,121.463L313.84,121.502L313.867,121.541L313.892,121.58L313.915,121.62L313.935,121.659L313.952,121.699L313.966,121.738L313.979,121.778L313.988,121.818L313.995,121.858L313.999,121.899L314,121.939L313.999,121.979L313.995,122.019L313.988,122.06L313.979,122.1L313.966,122.139L313.952,122.179L313.935,122.219L313.915,122.258L313.892,122.297L313.867,122.337L313.84,122.376L313.81,122.414L313.777,122.453L313.742,122.492L313.705,122.53L313.665,122.568L313.622,122.606L313.577,122.644L313.53,122.682L313.48,122.719L313.428,122.757L313.374,122.794L313.317,122.831L313.258,122.868L313.196,122.904L313.132,122.941L313.066,122.977L312.998,123.013L312.928,123.048L312.855,123.084L312.78,123.119L312.702,123.155L312.623,123.19L312.541,123.224L312.458,123.259L312.372,123.293L312.284,123.327L312.194,123.361L312.102,123.394L312.007,123.428L311.911,123.461L311.813,123.494L311.712,123.526L311.61,123.559L311.505,123.591L311.399,123.622L311.291,123.654L311.18,123.685L311.068,123.716L310.954,123.747L310.838,123.778L310.72,123.808L310.6,123.838L310.479,123.867L310.355,123.897L310.23,123.926L310.103,123.955L309.974,123.983L309.844,124.011L309.711,124.039L309.577,124.067L309.442,124.094L309.304,124.121L309.165,124.148L309.024,124.174L308.882,124.2L308.738,124.226L308.592,124.251L308.444,124.276L308.296,124.301L308.145,124.325L307.993,124.35L307.684,124.397L307.37,124.442L307.049,124.487L306.723,124.529L306.391,124.571L306.053,124.611L305.71,124.649L305.362,124.686L305.009,124.721L304.651,124.755L304.288,124.787L303.92,124.818L303.548,124.847L303.171,124.874L302.79,124.899L302.404,124.923L302.015,124.945L301.622,124.965L301.224,124.983L300.824,125L300.419,125.015L300.011,125.027L299.6,125.038L299.186,125.047L298.769,125.054L298.349,125.059L297.926,125.062L297.5,125.063L297.074,125.062L296.651,125.059L296.231,125.054L295.814,125.047L295.4,125.038L294.989,125.027L294.581,125.015L294.176,125L293.776,124.983L293.378,124.965L292.985,124.945L292.596,124.923L292.21,124.899L291.829,124.874L291.452,124.847L291.08,124.818L290.712,124.787L290.349,124.755L289.991,124.721L289.638,124.686L289.29,124.649L288.947,124.611L288.609,124.571L288.277,124.529L287.951,124.487L287.63,124.442L287.316,124.397L287.007,124.35L286.855,124.325L286.704,124.301L286.556,124.276L286.408,124.251L286.262,124.226L286.118,124.2L285.976,124.174L285.835,124.148L285.696,124.121L285.558,124.094L285.423,124.067L285.289,124.039L285.156,124.011L285.026,123.983L284.897,123.955L284.77,123.926L284.645,123.897L284.521,123.867L284.4,123.838L284.28,123.808L284.162,123.778L284.046,123.747L283.932,123.716L283.82,123.685L283.709,123.654L283.601,123.622L283.495,123.591L283.39,123.559L283.288,123.526L283.187,123.494L283.089,123.461L282.993,123.428L282.898,123.394L282.806,123.361L282.716,123.327L282.628,123.293L282.542,123.259L282.459,123.224L282.377,123.19L282.298,123.155L282.22,123.119L282.145,123.084L282.072,123.048L282.002,123.013L281.934,122.977L281.868,122.941L281.804,122.904L281.742,122.868L281.683,122.831L281.626,122.794L281.572,122.757L281.52,122.719L281.47,122.682L281.423,122.644L281.378,122.606L281.335,122.568L281.295,122.53L281.258,122.492L281.223,122.453L281.19,122.414L281.16,122.376L281.133,122.337L281.108,122.297L281.085,122.258L281.065,122.219L281.048,122.179L281.034,122.139L281.021,122.1L281.012,122.06L281.005,122.019L281.001,121.979L281,121.939L281.001,121.899L281.005,121.858L281.012,121.818L281.021,121.778L281.034,121.738L281.048,121.699L281.065,121.659L281.085,121.62L281.108,121.58L281.133,121.541L281.16,121.502L281.19,121.463L281.223,121.425L281.258,121.386L281.295,121.348L281.335,121.309L281.378,121.271L281.423,121.234L281.47,121.196L281.52,121.158L281.572,121.121L281.626,121.084L281.683,121.047L281.742,121.01L281.804,120.974L281.868,120.937L281.934,120.901L282.002,120.865L282.072,120.829L282.145,120.794L282.22,120.758L282.298,120.723L282.377,120.688L282.459,120.653L282.542,120.619L282.628,120.585L282.716,120.551L282.806,120.517L282.898,120.483L282.993,120.45L283.089,120.417L283.187,120.384L283.288,120.352L283.39,120.319L283.495,120.287L283.601,120.255L283.709,120.224L283.82,120.192L283.932,120.161L284.046,120.131L284.162,120.1L284.28,120.07L284.4,120.04L284.521,120.01L284.645,119.981L284.77,119.952L284.897,119.923L285.026,119.895L285.156,119.866L285.289,119.838L285.423,119.811L285.558,119.784L285.696,119.757L285.835,119.73L285.976,119.704L286.118,119.678L286.262,119.652L286.408,119.626L286.556,119.601L286.704,119.577L286.855,119.552L287.007,119.528L287.316,119.481L287.63,119.435L287.951,119.391L288.277,119.348L288.609,119.307L288.947,119.267L289.29,119.229L289.638,119.192L289.991,119.156L290.349,119.123L290.712,119.091L291.08,119.06L291.452,119.031L291.829,119.004L292.21,118.979L292.596,118.955L292.985,118.933L293.378,118.913L293.776,118.894L294.176,118.878L294.581,118.863L294.989,118.85L295.4,118.839L295.814,118.83L296.231,118.823L296.651,118.818L297.074,118.815L297.5,118.814L297.926,118.815ZM297.087,119.952L296.676,119.955L296.268,119.96L295.863,119.966L295.461,119.975L295.063,119.986L294.668,119.998L294.276,120.012L293.888,120.028L293.503,120.046L293.123,120.066L292.746,120.087L292.374,120.11L292.006,120.134L291.643,120.16L291.284,120.188L290.93,120.218L290.581,120.248L290.237,120.281L289.899,120.315L289.565,120.35L289.238,120.387L288.916,120.425L288.6,120.464L288.29,120.505L287.986,120.547L287.688,120.59L287.395,120.635L287.254,120.657L287.113,120.68L286.973,120.703L286.835,120.727L286.699,120.75L286.565,120.774L286.433,120.798L286.302,120.823L286.173,120.848L286.046,120.872L285.921,120.898L285.798,120.923L285.677,120.948L285.558,120.974L285.441,121L285.326,121.026L285.213,121.052L285.102,121.079L284.993,121.105L284.886,121.132L284.782,121.159L284.68,121.186L284.58,121.213L284.482,121.24L284.386,121.267L284.293,121.294L284.202,121.321L284.114,121.348L284.028,121.376L283.944,121.403L283.863,121.43L283.784,121.457L283.708,121.484L283.635,121.51L283.564,121.537L283.496,121.563L283.43,121.59L283.367,121.615L283.307,121.641L283.25,121.666L283.195,121.691L283.143,121.715L283.095,121.739L283.049,121.763L283.006,121.785L282.965,121.807L282.928,121.829L282.894,121.849L282.862,121.869L282.834,121.887L282.808,121.905L282.785,121.921L282.765,121.936L282.762,121.939L282.765,121.942L282.785,121.957L282.808,121.973L282.834,121.991L282.863,122.009L282.894,122.029L282.928,122.049L282.965,122.07L283.006,122.092L283.049,122.115L283.095,122.138L283.143,122.162L283.195,122.187L283.25,122.211L283.307,122.237L283.367,122.262L283.43,122.288L283.496,122.314L283.564,122.341L283.635,122.367L283.708,122.394L283.784,122.421L283.863,122.448L283.944,122.475L284.028,122.502L284.114,122.529L284.202,122.557L284.293,122.584L284.386,122.611L284.482,122.638L284.58,122.665L284.68,122.692L284.782,122.719L284.886,122.746L284.993,122.772L285.102,122.799L285.213,122.825L285.326,122.852L285.441,122.878L285.558,122.904L285.677,122.929L285.798,122.955L285.921,122.98L286.046,123.005L286.173,123.03L286.302,123.055L286.433,123.079L286.565,123.103L286.699,123.127L286.835,123.151L286.973,123.175L287.113,123.198L287.254,123.221L287.395,123.243L287.688,123.288L287.986,123.331L288.29,123.373L288.6,123.414L288.916,123.453L289.238,123.491L289.565,123.528L289.899,123.563L290.237,123.597L290.581,123.629L290.93,123.66L291.284,123.69L291.643,123.717L292.006,123.743L292.374,123.768L292.746,123.791L293.123,123.812L293.503,123.832L293.888,123.849L294.276,123.865L294.668,123.88L295.063,123.892L295.461,123.903L295.863,123.911L296.268,123.918L296.676,123.923L297.087,123.926L297.5,123.927L297.913,123.926L298.324,123.923L298.732,123.918L299.137,123.911L299.539,123.903L299.937,123.892L300.332,123.88L300.724,123.865L301.112,123.849L301.497,123.832L301.877,123.812L302.254,123.791L302.626,123.768L302.994,123.743L303.357,123.717L303.716,123.69L304.07,123.66L304.419,123.629L304.763,123.597L305.101,123.563L305.435,123.528L305.762,123.491L306.084,123.453L306.4,123.414L306.71,123.373L307.014,123.331L307.312,123.288L307.605,123.243L307.746,123.221L307.887,123.198L308.027,123.175L308.164,123.151L308.301,123.127L308.435,123.103L308.567,123.079L308.698,123.055L308.827,123.03L308.954,123.005L309.079,122.98L309.202,122.955L309.323,122.929L309.442,122.904L309.559,122.878L309.674,122.852L309.787,122.825L309.898,122.799L310.007,122.772L310.114,122.746L310.218,122.719L310.32,122.692L310.42,122.665L310.518,122.638L310.614,122.611L310.707,122.584L310.798,122.557L310.886,122.529L310.972,122.502L311.056,122.475L311.137,122.448L311.216,122.421L311.292,122.394L311.365,122.367L311.436,122.341L311.505,122.314L311.57,122.288L311.633,122.262L311.693,122.237L311.75,122.211L311.805,122.187L311.856,122.162L311.905,122.138L311.951,122.115L311.994,122.092L312.035,122.07L312.072,122.049L312.106,122.029L312.138,122.009L312.166,121.991L312.192,121.973L312.214,121.957L312.235,121.942L312.238,121.939L312.235,121.936L312.215,121.921L312.192,121.905L312.166,121.887L312.138,121.869L312.106,121.849L312.072,121.828L312.035,121.807L311.994,121.785L311.951,121.763L311.905,121.739L311.856,121.715L311.805,121.691L311.75,121.666L311.693,121.641L311.633,121.615L311.57,121.59L311.505,121.563L311.436,121.537L311.365,121.51L311.292,121.484L311.216,121.457L311.137,121.43L311.056,121.403L310.972,121.376L310.886,121.348L310.798,121.321L310.707,121.294L310.614,121.267L310.518,121.24L310.42,121.213L310.32,121.186L310.218,121.159L310.114,121.132L310.007,121.105L309.898,121.079L309.787,121.052L309.674,121.026L309.559,121L309.442,120.974L309.323,120.948L309.202,120.923L309.079,120.898L308.954,120.872L308.827,120.848L308.698,120.823L308.567,120.798L308.435,120.774L308.301,120.75L308.164,120.727L308.027,120.703L307.887,120.68L307.746,120.657L307.605,120.635L307.312,120.59L307.014,120.547L306.71,120.505L306.4,120.464L306.084,120.425L305.762,120.387L305.435,120.35L305.101,120.315L304.763,120.281L304.419,120.248L304.07,120.218L303.716,120.188L303.357,120.16L302.994,120.134L302.626,120.11L302.254,120.087L301.877,120.066L301.497,120.046L301.112,120.028L300.724,120.012L300.332,119.998L299.937,119.986L299.539,119.975L299.137,119.966L298.732,119.96L298.324,119.955L297.913,119.952L297.5,119.951L297.087,119.952Z" style="fill:rgb(120,32,31);"/>
            </g>
            <g transform="matrix(2,0,0,0.975,-556,-1.89952)">
                <path d="M286.382,66.171C286.376,66.129 286.373,66.087 286.373,66.044C286.373,64.32 291.583,62.92 298,62.92C304.417,62.92 309.627,64.32 309.627,66.044C309.627,66.087 309.624,66.129 309.618,66.171L312.35,85.624C312.404,85.903 312.444,86.185 312.469,86.471L312.5,86.693L312.485,86.693C312.495,86.856 312.5,87.019 312.5,87.184C312.5,92.717 306.919,97.284 299.731,97.924C298.302,103.552 299.149,113.524 300.132,117.873C305.184,118.155 309,119.422 309,120.939C309,122.663 304.071,124.063 298,124.063C291.929,124.063 287,122.663 287,120.939C287,119.456 290.646,118.213 295.528,117.894C296.499,113.188 297.263,103.197 295.686,97.863C288.782,97.035 283.5,92.566 283.5,87.184C283.5,87.019 283.505,86.856 283.515,86.693L283.5,86.693L283.531,86.471C283.556,86.185 283.596,85.903 283.65,85.624L286.382,66.171Z" style="fill:none;stroke:rgb(213,0,25);stroke-width:1.5px;"/>
            </g>
            <g transform="matrix(1.46964,0,0,0.975,-396.978,-56.9063)">
                <path d="M297.926,118.815L298.349,118.818L298.769,118.823L299.186,118.83L299.6,118.839L300.011,118.85L300.419,118.863L300.824,118.878L301.224,118.894L301.622,118.913L302.015,118.933L302.404,118.955L302.79,118.979L303.171,119.004L303.548,119.031L303.92,119.06L304.288,119.091L304.651,119.123L305.009,119.156L305.362,119.192L305.71,119.229L306.053,119.267L306.391,119.307L306.723,119.348L307.049,119.391L307.37,119.435L307.684,119.481L307.993,119.528L308.296,119.577L308.592,119.626L308.882,119.678L309.165,119.73L309.442,119.784L309.711,119.838L309.974,119.895L310.23,119.952L310.479,120.01L310.72,120.07L310.954,120.131L311.18,120.192L311.291,120.224L311.399,120.255L311.505,120.287L311.61,120.319L311.712,120.352L311.813,120.384L311.911,120.417L312.007,120.45L312.102,120.483L312.194,120.517L312.284,120.551L312.372,120.585L312.458,120.619L312.541,120.653L312.623,120.688L312.702,120.723L312.78,120.758L312.855,120.794L312.928,120.829L312.998,120.865L313.066,120.901L313.132,120.937L313.196,120.974L313.258,121.01L313.317,121.047L313.374,121.084L313.428,121.121L313.48,121.158L313.53,121.196L313.577,121.234L313.622,121.271L313.665,121.309L313.705,121.348L313.742,121.386L313.777,121.425L313.81,121.463L313.84,121.502L313.867,121.541L313.892,121.58L313.915,121.62L313.935,121.659L313.952,121.699L313.966,121.738L313.979,121.778L313.988,121.818L313.995,121.858L313.999,121.899L314,121.939L313.999,121.979L313.995,122.019L313.988,122.06L313.979,122.1L313.966,122.139L313.952,122.179L313.935,122.219L313.915,122.258L313.892,122.297L313.867,122.337L313.84,122.376L313.81,122.414L313.777,122.453L313.742,122.492L313.705,122.53L313.665,122.568L313.622,122.606L313.577,122.644L313.53,122.682L313.48,122.719L313.428,122.757L313.374,122.794L313.317,122.831L313.258,122.868L313.196,122.904L313.132,122.941L313.066,122.977L312.998,123.013L312.928,123.048L312.855,123.084L312.78,123.119L312.702,123.155L312.623,123.19L312.541,123.224L312.458,123.259L312.372,123.293L312.284,123.327L312.194,123.361L312.102,123.394L312.007,123.428L311.911,123.461L311.813,123.494L311.712,123.526L311.61,123.559L311.505,123.591L311.399,123.622L311.291,123.654L311.18,123.685L310.954,123.747L310.72,123.808L310.479,123.867L310.23,123.926L309.974,123.983L309.711,124.039L309.442,124.094L309.165,124.148L308.882,124.2L308.592,124.251L308.296,124.301L307.993,124.35L307.684,124.397L307.37,124.442L307.049,124.487L306.723,124.529L306.391,124.571L306.053,124.611L305.71,124.649L305.362,124.686L305.009,124.721L304.651,124.755L304.288,124.787L303.92,124.818L303.548,124.847L303.171,124.874L302.79,124.899L302.404,124.923L302.015,124.945L301.622,124.965L301.224,124.983L300.824,125L300.419,125.015L300.011,125.027L299.6,125.038L299.186,125.047L298.769,125.054L298.349,125.059L297.926,125.062L297.5,125.063L297.074,125.062L296.651,125.059L296.231,125.054L295.814,125.047L295.4,125.038L294.989,125.027L294.581,125.015L294.176,125L293.776,124.983L293.378,124.965L292.985,124.945L292.596,124.923L292.21,124.899L291.829,124.874L291.452,124.847L291.08,124.818L290.712,124.787L290.349,124.755L289.991,124.721L289.638,124.686L289.29,124.649L288.947,124.611L288.609,124.571L288.277,124.529L287.951,124.487L287.63,124.442L287.316,124.397L287.007,124.35L286.704,124.301L286.408,124.251L286.118,124.2L285.835,124.148L285.558,124.094L285.289,124.039L285.026,123.983L284.77,123.926L284.521,123.867L284.28,123.808L284.046,123.747L283.82,123.685L283.709,123.654L283.601,123.622L283.495,123.591L283.39,123.559L283.288,123.526L283.187,123.494L283.089,123.461L282.993,123.428L282.898,123.394L282.806,123.361L282.716,123.327L282.628,123.293L282.542,123.259L282.459,123.224L282.377,123.19L282.298,123.155L282.22,123.119L282.145,123.084L282.072,123.048L282.002,123.013L281.934,122.977L281.868,122.941L281.804,122.904L281.742,122.868L281.683,122.831L281.626,122.794L281.572,122.757L281.52,122.719L281.47,122.682L281.423,122.644L281.378,122.606L281.335,122.568L281.295,122.53L281.258,122.492L281.223,122.453L281.19,122.414L281.16,122.376L281.133,122.337L281.108,122.297L281.085,122.258L281.065,122.219L281.048,122.179L281.034,122.139L281.021,122.1L281.012,122.06L281.005,122.019L281.001,121.979L281,121.939L281.001,121.899L281.005,121.858L281.012,121.818L281.021,121.778L281.034,121.738L281.048,121.699L281.065,121.659L281.085,121.62L281.108,121.58L281.133,121.541L281.16,121.502L281.19,121.463L281.223,121.425L281.258,121.386L281.295,121.348L281.335,121.309L281.378,121.271L281.423,121.234L281.47,121.196L281.52,121.158L281.572,121.121L281.626,121.084L281.683,121.047L281.742,121.01L281.804,120.974L281.868,120.937L281.934,120.901L282.002,120.865L282.072,120.829L282.145,120.794L282.22,120.758L282.298,120.723L282.377,120.688L282.459,120.653L282.542,120.619L282.628,120.585L282.716,120.551L282.806,120.517L282.898,120.483L282.993,120.45L283.089,120.417L283.187,120.384L283.288,120.352L283.39,120.319L283.495,120.287L283.601,120.255L283.709,120.224L283.82,120.192L284.046,120.131L284.28,120.07L284.521,120.01L284.77,119.952L285.026,119.895L285.289,119.838L285.558,119.784L285.835,119.73L286.118,119.678L286.408,119.626L286.704,119.577L287.007,119.528L287.316,119.481L287.63,119.435L287.951,119.391L288.277,119.348L288.609,119.307L288.947,119.267L289.29,119.229L289.638,119.192L289.991,119.156L290.349,119.123L290.712,119.091L291.08,119.06L291.452,119.031L291.829,119.004L292.21,118.979L292.596,118.955L292.985,118.933L293.378,118.913L293.776,118.894L294.176,118.878L294.581,118.863L294.989,118.85L295.4,118.839L295.814,118.83L296.231,118.823L296.651,118.818L297.074,118.815L297.5,118.814L297.926,118.815ZM297.088,120.315L296.678,120.318L296.271,120.323L295.867,120.33L295.467,120.339L295.069,120.349L294.675,120.362L294.284,120.376L293.897,120.392L293.514,120.409L293.134,120.429L292.759,120.45L292.388,120.473L292.021,120.497L291.659,120.524L291.301,120.551L290.949,120.58L290.601,120.611L290.258,120.643L289.921,120.677L289.589,120.712L289.263,120.749L288.942,120.787L288.628,120.826L288.319,120.867L288.017,120.908L287.721,120.951L287.432,120.995L287.149,121.041L286.874,121.087L286.606,121.134L286.345,121.182L286.091,121.232L285.845,121.282L285.608,121.332L285.378,121.384L285.157,121.436L284.945,121.488L284.741,121.541L284.543,121.595L284.453,121.621L284.362,121.647L284.273,121.674L284.187,121.7L284.103,121.727L284.022,121.753L283.943,121.779L283.867,121.805L283.794,121.831L283.723,121.857L283.656,121.882L283.591,121.908L283.528,121.932L283.513,121.939L283.528,121.945L283.591,121.97L283.656,121.995L283.723,122.021L283.794,122.046L283.867,122.072L283.943,122.098L284.022,122.125L284.103,122.151L284.187,122.178L284.273,122.204L284.362,122.231L284.453,122.257L284.543,122.283L284.741,122.337L284.945,122.39L285.157,122.442L285.378,122.494L285.608,122.545L285.845,122.596L286.091,122.646L286.345,122.695L286.606,122.744L286.874,122.791L287.149,122.837L287.432,122.882L287.721,122.926L288.017,122.969L288.319,123.011L288.628,123.052L288.942,123.091L289.263,123.129L289.589,123.165L289.921,123.201L290.258,123.234L290.601,123.267L290.949,123.297L291.301,123.327L291.659,123.354L292.021,123.38L292.388,123.405L292.759,123.428L293.134,123.449L293.514,123.468L293.897,123.486L294.284,123.502L294.675,123.516L295.069,123.529L295.467,123.539L295.867,123.548L296.271,123.555L296.678,123.559L297.088,123.562L297.5,123.563L297.912,123.562L298.322,123.559L298.729,123.555L299.133,123.548L299.533,123.539L299.931,123.529L300.325,123.516L300.716,123.502L301.103,123.486L301.486,123.468L301.866,123.449L302.241,123.428L302.612,123.405L302.979,123.38L303.341,123.354L303.699,123.327L304.051,123.297L304.399,123.267L304.742,123.234L305.079,123.201L305.411,123.165L305.737,123.129L306.058,123.091L306.372,123.052L306.681,123.011L306.983,122.969L307.279,122.926L307.568,122.882L307.851,122.837L308.126,122.791L308.394,122.744L308.655,122.695L308.909,122.646L309.155,122.596L309.392,122.545L309.622,122.494L309.843,122.442L310.055,122.39L310.259,122.337L310.457,122.283L310.547,122.257L310.638,122.231L310.727,122.204L310.813,122.178L310.897,122.151L310.978,122.125L311.057,122.098L311.133,122.072L311.206,122.046L311.277,122.021L311.344,121.995L311.409,121.97L311.472,121.945L311.487,121.939L311.472,121.932L311.409,121.908L311.344,121.882L311.277,121.857L311.206,121.831L311.133,121.805L311.057,121.779L310.978,121.753L310.897,121.727L310.813,121.7L310.727,121.674L310.638,121.647L310.547,121.621L310.457,121.595L310.259,121.541L310.055,121.488L309.843,121.436L309.622,121.384L309.392,121.332L309.155,121.282L308.909,121.232L308.655,121.182L308.394,121.134L308.126,121.087L307.851,121.041L307.568,120.995L307.279,120.951L306.983,120.908L306.681,120.867L306.372,120.826L306.058,120.787L305.737,120.749L305.411,120.712L305.079,120.677L304.742,120.643L304.399,120.611L304.051,120.58L303.699,120.551L303.341,120.524L302.979,120.497L302.612,120.473L302.241,120.45L301.866,120.429L301.486,120.409L301.103,120.392L300.716,120.376L300.325,120.362L299.931,120.349L299.533,120.339L299.133,120.33L298.729,120.323L298.322,120.318L297.912,120.315L297.5,120.314L297.088,120.315Z" style="fill:rgb(213,0,25);"/>
            </g>
        </g>
    </g>
</svg>
